<?xml version="1.0" standalone="no"?>
<!DOCTYPE svg PUBLIC "-//W3C//DTD SVG 1.1//EN" "http://www.w3.org/Graphics/SVG/1.1/DTD/svg11.dtd" >
<svg xmlns="http://www.w3.org/2000/svg">
<metadata>Generated by IcoMoon</metadata>
<defs>
<font id="fontello" horiz-adv-x="512">
<font-face units-per-em="512" ascent="480" descent="-32" />
<missing-glyph horiz-adv-x="512" />
<glyph unicode="&#x20;" d="" horiz-adv-x="256" />
<glyph unicode="&#xe600;" d="M343.501 288.615c6.938 6.861 18.151 6.861 25.063 0 6.938-6.861 6.938-17.946 0-24.807l-100.019-98.048c-6.938-6.861-18.15-6.861-25.063 0l-100.045 98.048c-6.912 6.861-6.912 17.946 0 24.807 6.938 6.861 18.125 6.861 25.063 0l87.501-80.384 87.501 80.384z" />
<glyph unicode="&#xe601;" d="M168.474 168.986c-6.938-6.861-18.125-6.861-25.063 0-6.912 6.861-6.938 17.945 0 24.832l100.045 97.997c6.938 6.861 18.151 6.861 25.063 0l100.045-98.023c6.938-6.887 6.938-17.971 0-24.832s-18.125-6.861-25.063 0l-87.526 80.41-87.501-80.384z" />
<glyph unicode="&#xe602;" d="M194.585 142.899c-6.861-6.938-6.861-18.151 0-25.063 6.835-6.938 17.946-6.938 24.806 0l98.048 100.019c6.861 6.938 6.861 18.151 0 25.063l-98.048 100.045c-6.861 6.938-17.946 6.938-24.806 0s-6.861-18.125-0.025-25.037l80.409-87.527-80.384-87.501z" />
<glyph unicode="&#xe603;" d="M379.392 116.531c-63.104 22.989-83.277 42.394-83.277 83.942 0 24.935 19.277 16.793 27.725 62.464 3.507 18.944 20.531 0.307 23.808 43.545 0 17.229-9.293 21.529-9.293 21.529s4.736 25.523 6.579 45.133c2.253 24.474-14.131 87.654-101.734 87.654-87.578 0-104.013-63.181-101.709-87.654 1.843-19.61 6.579-45.133 6.579-45.133s-9.319-4.275-9.319-21.529c3.251-43.238 20.275-24.601 23.782-43.545 8.474-45.671 27.75-37.53 27.75-62.464 0-41.549-20.173-60.954-83.277-83.942-63.334-23.040-104.448-46.567-104.448-62.618 0-16.026 0-53.888 0-53.888h481.28c0 0 0 37.863 0 53.888s-41.139 39.552-104.448 62.618z" />
<glyph unicode="&#xe604;" d="M316.851 116.531c-63.769 22.989-84.147 42.394-84.147 83.942 0 24.935 19.482 16.793 28.032 62.464 3.558 18.944 20.762 0.307 24.013 43.545 0 17.229-9.37 21.529-9.37 21.529s4.787 25.523 6.63 45.133c2.304 24.474-14.285 87.654-102.81 87.654s-105.114-63.181-102.809-87.654c1.869-19.635 6.656-45.133 6.656-45.133s-9.395-4.275-9.395-21.529c3.302-43.238 20.505-24.601 24.013-43.545 8.576-45.671 28.058-37.53 28.058-62.464 0-41.549-20.403-60.954-84.173-83.942-7.68-2.739-25.984-7.040-41.549-13.773v-102.759h409.6c0 0 0 37.863 0 53.888s-28.749 39.577-92.749 62.643zM435.2 256v76.8h-51.2v-76.8h-76.8v-51.2h76.8v-76.8h51.2v76.8h76.8v51.2h-76.8z" />
<glyph unicode="&#xe605;" d="M317.414 142.899c6.861-6.938 6.861-18.151 0-25.063-6.861-6.938-17.945-6.938-24.807 0l-98.048 100.019c-6.861 6.938-6.861 18.151 0 25.063l98.048 100.045c6.861 6.938 17.945 6.938 24.807 0s6.861-18.125 0-25.063l-80.384-87.501 80.384-87.501z" />
<glyph unicode="&#xe606;" d="M256 445.44c-118.784 0-215.040-96.307-215.040-215.040 0-118.784 96.281-215.040 215.040-215.040 118.759 0 215.040 96.281 215.040 215.040 0 118.758-96.281 215.040-215.040 215.040zM300.262 230.4l78.362-78.362-44.262-44.262-78.362 78.362-78.362-78.361-44.237 44.262 78.336 78.362-78.336 78.336 44.237 44.262 78.362-78.336 78.361 78.336 44.262-44.237-78.362-78.362z" />
<glyph unicode="&#xe607;" d="M358.375 348.16l0.026-235.52-204.8 117.76z" />
<glyph unicode="&#xe608;" d="M373.76 332.774l-235.52 0.026 117.76-204.8z" />
<glyph unicode="&#xe609;" d="M138.24 128h235.52l-117.786 204.8z" />
<glyph unicode="&#xe60a;" d="M153.625 348.16l-0.025-235.52 204.8 117.76z" />
<glyph unicode="&#xe60b;" d="M389.094 256h-107.52v107.52c0 14.131-11.443 15.36-25.6 15.36-14.131 0-25.6-1.203-25.6-15.36v-107.52h-107.495c-14.157 0-15.36-11.469-15.36-25.6s1.203-25.6 15.36-25.6h107.495v-107.52c0-14.131 11.469-15.36 25.6-15.36 14.157 0 25.6 1.229 25.6 15.36v107.52h107.52c14.157 0 15.385 11.469 15.385 25.6s-1.229 25.6-15.385 25.6z" />
<glyph unicode="&#xe60c;" d="M212.352 51.2c-11.136 0-21.683 5.197-28.441 14.157l-91.495 120.781c-11.904 15.719-8.806 38.093 6.912 49.997 15.744 11.929 38.093 8.806 49.997-6.912l60.185-79.463 151.347 242.97c10.419 16.717 32.435 21.837 49.178 11.418 16.717-10.394 21.837-32.435 11.392-49.152l-178.765-286.976c-6.221-10.010-16.947-16.281-28.697-16.793-0.537-0.026-1.075-0.026-1.613-0.026z" />
<glyph unicode="&#xe60d;" d="M389.453 290.841c-7.040 0-13.978-0.615-20.711-1.741-16.793 54.912-68.813 94.925-130.458 94.925-75.213 0-136.167-59.597-136.167-133.12 0-6.553 0.512-13.005 1.459-19.328-3.609 0.41-7.245 0.691-10.983 0.691-51.123 0-92.595-40.551-92.595-90.522 0-49.997 41.472-90.522 92.595-90.522h296.858c67.712 0 122.547 53.657 122.547 119.808 0 66.176-54.861 119.808-122.547 119.808z" />
<glyph unicode="&#xe60e;" d="M389.453 290.841c-7.040 0-13.978-0.615-20.711-1.741-16.793 54.912-68.813 94.925-130.458 94.925-75.213 0-136.167-59.597-136.167-133.12 0-6.553 0.512-13.005 1.459-19.328-3.609 0.41-7.245 0.691-10.983 0.691-51.123 0-92.595-40.551-92.595-90.522 0-49.997 41.472-90.522 92.595-90.522h127.565v97.28h-53.76l89.6 117.76 89.6-117.76h-53.76v-97.28h97.587c67.712 0 122.547 53.658 122.547 119.808 0.026 66.176-54.835 119.808-122.522 119.808z" />
<glyph unicode="&#xe60f;" d="M256 373.76c-167.962 0-256-123.725-256-143.36s88.038-143.36 256-143.36 256 123.725 256 143.36-88.038 143.36-256 143.36zM256 120.115c-62.822 0-113.767 49.382-113.767 110.285s50.944 110.285 113.767 110.285c62.848 0 113.792-49.382 113.792-110.285s-50.944-110.285-113.792-110.285zM256 230.4c-10.393 11.417 16.998 55.117 0 55.117-31.411 0-56.883-24.679-56.883-55.117s25.472-55.143 56.883-55.143c31.437 0 56.909 24.704 56.909 55.143 0 13.977-48.026-9.728-56.909 0z" />
<glyph unicode="&#xe610;" d="M189.44 384h-46.080c-28.16 0-40.96-12.8-40.96-40.96v-46.080c0-28.16 12.8-40.96 40.96-40.96h46.080c28.16 0 40.96 12.8 40.96 40.96v46.080c0 28.16-12.8 40.96-40.96 40.96zM368.64 384h-46.080c-28.16 0-40.96-12.8-40.96-40.96v-46.080c0-28.16 12.8-40.96 40.96-40.96h46.080c28.16 0 40.96 12.8 40.96 40.96v46.080c0 28.16-12.8 40.96-40.96 40.96zM189.44 204.8h-46.080c-28.16 0-40.96-12.8-40.96-40.96v-46.080c0-28.16 12.8-40.96 40.96-40.96h46.080c28.16 0 40.96 12.8 40.96 40.96v46.080c0 28.16-12.8 40.96-40.96 40.96zM368.64 204.8h-46.080c-28.16 0-40.96-12.8-40.96-40.96v-46.080c0-28.16 12.8-40.96 40.96-40.96h46.080c28.16 0 40.96 12.8 40.96 40.96v46.080c0 28.16-12.8 40.96-40.96 40.96z" />
<glyph unicode="&#xe611;" d="M384 380.697h-73.113c-8.653 0-18.304-11.366-18.304-26.598v-52.787h91.418v-75.264h-91.418v-226.048h-86.323v226.023h-78.259v75.29h78.259v44.288c0 63.514 44.083 115.2 104.601 115.2h73.139v-80.103z" />
<glyph unicode="&#xe800;" d="M258.048-25.344c-110.592 0-198.144 64.512-238.592 156.672-44.544 102.4-8.704 266.752 71.168 339.456l-3.072-79.872c4.096 4.608 34.816 6.144 39.936-0.512 16.384 31.744 69.632 55.808 112.64 56.32-16.384-13.312-54.272-63.488-50.688-89.088 20.48-6.656 52.736-6.656 69.632-7.68 5.12-3.072 4.096-20.48-6.144-34.816-13.824-18.944-49.664-25.088-49.664-25.088l4.096-54.272-39.424 19.456c-13.312-32.768 17.92-61.44 49.664-56.32 35.328 6.144 48.128 29.184 72.704 27.648 25.088-1.024 34.816-14.848 31.232-27.648-3.584-15.36-30.208-12.8-30.208-12.8-22.528-35.84-52.736-51.712-101.376-47.616 73.728-60.928 173.056-5.12 198.144 44.544 25.6 49.664 3.584 123.392-22.016 144.896 30.208-12.8 50.688-26.112 61.44-55.296 5.632 64-23.552 136.704-76.288 179.2 98.816-28.672 159.232-105.472 160.768-227.84 1.536-122.368-108.032-249.344-253.952-249.344z" />
<glyph unicode="&#xe801;" d="M254.976 480c-75.264-0.512-148.992-34.304-198.144-95.232l78.848-121.344c19.968 56.832 76.8 93.184 136.704 87.040l211.968-11.264c-21.504 43.008-55.296 80.384-100.352 106.496-40.448 23.552-84.992 34.304-129.024 34.304zM41.984 364.288c-26.624-40.448-41.984-88.576-41.984-140.288 0-128 93.696-233.984 216.576-252.928l65.536 129.024c-59.392-11.264-119.296 19.968-143.872 74.752l-96.256 189.44zM495.104 316.16l-144.384-7.68c38.912-45.568 41.984-113.152 6.656-162.304l-115.712-177.664c48.128-3.072 97.28 7.68 142.336 33.792 110.592 64 155.648 198.144 111.104 313.856zM256 310.528c-47.616 0-86.528-38.912-86.528-86.528s38.912-86.528 86.528-86.528 86.528 38.912 86.528 86.528-38.912 86.528-86.528 86.528z" />
<glyph unicode="&#xe802;" d="M218.112-32c-290.816 0-290.816 512 0 512s290.304-512 0-512zM218.112 15.104c121.344 0 121.344 417.792 0 417.792s-121.856-417.792 0-417.792z" horiz-adv-x="436" />
<glyph unicode="&#xe803;" d="M432.128 480c-41.472-0.512-92.672-23.552-143.872-54.272-122.368 17.92-254.976-52.736-260.608-197.632 30.72 47.616 114.688 131.584 187.904 154.112v-6.656c-91.648-46.080-292.352-313.344-184.32-395.776 46.080-35.328 158.72 18.944 176.128 38.912 14.848-2.56 30.208-4.096 45.568-4.096 102.912 0 189.952 62.976 217.088 149.504h-154.112c-6.656-28.672-28.672-47.104-61.952-47.104-52.224 0-64.512 34.816-64.512 77.312h287.232c14.848 104.448-58.368 196.608-156.672 224.768 89.088 58.88 185.856 82.432 153.088-53.248h10.24c17.92 55.808 10.752 97.792-19.456 109.056-9.216 3.584-18.944 5.12-29.696 5.12-0.512 0-1.536 0-2.048 0zM251.904 324.864c40.448 0 65.536-24.576 65.536-66.048h-129.024c0 39.424 23.552 66.048 63.488 66.048zM64 108.8c29.696-42.496 76.288-74.24 131.072-87.552-39.424-29.696-115.712-43.008-136.192-26.624-24.576 20.48-18.432 63.488 5.12 114.176z" horiz-adv-x="484" />
<glyph unicode="&#xe804;" d="M437.76 49.408c-96.768-97.28-266.24-88.064-360.96 6.656-97.28 97.28-102.4 252.928-14.336 355.84 5.632 6.656 10.752 13.312 17.92 17.408 18.432 11.776 43.52 9.216 59.904-6.656 15.36-15.872 17.92-38.912 8.192-57.344-2.56-4.608-4.608-7.68-8.192-11.264-71.68-77.312-74.24-194.048-4.096-264.192 78.336-78.336 208.384-61.952 277.504 17.408 54.272 62.464 72.704 152.064 39.424 230.912-42.496 101.376-156.16 148.992-261.12 113.664v0.512c120.832 41.984 251.904-12.288 301.056-129.024 36.352-85.504 18.944-181.76-36.864-252.416-5.632-7.68-11.776-14.848-18.432-21.504z" />
<glyph unicode="&#xe805;" d="M236.544 480c-3.072 0-5.632-2.56-5.632-5.632v-93.696c0-3.072 2.56-5.632 5.632-5.632h35.328c0.512 0 0.512 0 0.512 0 3.584 0 6.144 2.56 6.144 5.632v93.696c0 3.072-2.56 5.632-6.144 5.632h-35.328c0 0 0 0-0.512 0zM364.544 455.936c-2.048 0.512-4.096-1.024-5.12-2.56l-46.592-80.896c-2.048-3.072-1.024-6.656 2.048-8.192l30.72-17.92c0 0 0 0 0 0 3.072-1.536 6.656-0.512 8.192 2.048l46.592 80.896c1.536 3.072 1.024 6.656-2.048 8.192l-31.232 17.92c-0.512 0.512-1.536 0.512-2.56 0.512zM145.408 454.912c-1.024 0-2.048-0.512-3.072-1.024l-31.232-17.92c-2.56-1.536-3.584-5.12-2.048-8.192l46.592-80.384c0 0 0 0 0 0 1.536-3.072 5.12-4.096 8.192-2.56l31.232 17.92c2.56 2.048 3.584 5.632 2.048 8.192l-46.592 80.384c0 0.512 0 0.512 0 0.512-1.024 2.048-3.072 3.072-5.12 3.072zM462.848 371.456c-1.024 0-2.048 0-3.072-0.512l-80.384-46.592c0 0 0 0 0 0-3.072-1.536-4.096-5.12-2.56-8.192l17.92-31.232c2.048-2.56 5.632-3.584 8.192-2.048l80.384 46.592c0.512 0 0.512 0 0.512 0 3.072 1.536 3.584 5.12 2.048 8.192l-17.92 31.232c-1.024 1.536-3.072 2.56-5.12 2.56zM48.128 369.408c-2.56 0-4.608-1.024-5.632-3.072l-17.92-31.232c-1.536-2.56-0.512-6.144 2.048-7.68l80.896-47.104c3.072-1.536 6.656-0.512 8.192 2.56l17.92 30.72c0 0 0 0 0 0 1.536 3.072 0.512 6.656-2.048 8.192l-80.896 46.592c-1.024 0.512-2.048 1.024-2.56 1.024zM412.672 249.088v0c-3.072 0-5.632-2.56-5.632-5.632v-35.328c0-0.512 0-0.512 0-0.512 0-3.584 2.56-6.144 5.632-6.144h93.696c3.072 0 5.632 2.56 5.632 6.144v35.328c0 0 0 0 0 0.512 0 3.072-2.56 5.632-5.632 5.632h-93.696zM6.144 246.528v0c-3.584 0-6.144-2.56-6.144-6.144v-35.328c0 0 0 0 0-0.512 0-3.072 2.56-5.632 6.144-5.632h93.184c3.072 0 5.632 2.56 5.632 5.632v35.328c0 0.512 0 0.512 0 0.512 0 3.584-2.56 6.144-5.632 6.144h-93.184zM401.408 168.192c-2.048 0-4.096-1.024-5.12-3.072l-17.408-30.72c-0.512 0-0.512 0-0.512 0-1.536-3.072-0.512-6.656 2.048-8.192l80.896-46.592c3.072-1.536 6.656-1.024 8.192 2.048l17.92 31.232c1.536 2.56 0.512 6.144-2.048 7.68l-80.896 46.592c-1.024 0.512-2.048 1.024-3.072 1.024zM111.616 165.632c-0.512 0-1.536 0-2.56-0.512l-80.384-46.592c0 0-0.512 0-0.512 0-2.56-1.536-3.584-5.632-2.048-8.192l17.92-31.232c1.536-2.56 5.12-3.584 8.192-2.048l80.384 46.592c0 0 0 0 0 0 3.072 1.536 4.096 5.12 2.56 8.192l-17.92 31.232c-1.536 1.536-3.584 2.56-5.632 2.56zM351.232 103.68c-1.024 0-2.048 0-3.072-0.512l-31.232-17.92c-2.56-2.048-3.584-5.632-2.048-8.192l46.592-80.384c0-0.512 0-0.512 0-0.512 1.536-3.072 5.632-3.584 8.192-2.048l31.232 17.92c2.56 1.536 3.584 5.12 2.048 8.192l-46.592 80.384c0 0 0 0 0 0-1.024 2.048-3.072 3.072-5.12 3.072zM163.328 102.144c-2.048 0.512-4.096-1.024-5.12-2.56l-46.592-80.896c-1.536-3.072-0.512-6.656 2.048-8.192l31.232-17.92c2.56-1.536 6.144-0.512 7.68 2.048l47.104 80.896c1.536 3.072 0.512 6.656-2.56 8.192l-30.72 17.408c0 0.512 0 0.512 0 0.512-1.024 0.512-2.048 0.512-3.072 0.512zM239.616 72.96c-3.584 0-6.144-2.56-6.144-5.632v-93.696c0-3.072 2.56-5.632 6.144-5.632h35.328c0 0 0 0 0.512 0 3.072 0 5.632 2.56 5.632 5.632v93.696c0 3.072-2.56 5.632-5.632 5.632h-35.328c-0.512 0-0.512 0-0.512 0z" />
<glyph unicode="&#xe806;" d="M32.256-32h64c17.408 0 31.744 14.336 31.744 31.744v64.512c0 17.408-14.336 31.744-31.744 31.744h-64c-17.92 0-32.256-14.336-32.256-31.744v-64.512c0-17.408 14.336-31.744 32.256-31.744zM224.256-32h64c17.408 0 31.744 14.336 31.744 31.744v64.512c0 17.408-14.336 31.744-31.744 31.744h-64c-17.92 0-32.256-14.336-32.256-31.744v-64.512c0-17.408 14.336-31.744 32.256-31.744zM416.256-32h64c17.408 0 31.744 14.336 31.744 31.744v64.512c0 17.408-14.336 31.744-31.744 31.744h-64c-17.92 0-32.256-14.336-32.256-31.744v-64.512c0-17.408 14.336-31.744 32.256-31.744zM32.256 352h64c17.408 0 31.744 14.336 31.744 32.256v64c0 17.408-14.336 31.744-31.744 31.744h-64c-17.92 0-32.256-14.336-32.256-31.744v-64c0-17.92 14.336-32.256 32.256-32.256zM224.256 352h64c17.408 0 31.744 14.336 31.744 32.256v64c0 17.408-14.336 31.744-31.744 31.744h-64c-17.92 0-32.256-14.336-32.256-31.744v-64c0-17.92 14.336-32.256 32.256-32.256zM384 448.256v-64c0-17.92 14.336-32.256 32.256-32.256h64c17.408 0 31.744 14.336 31.744 32.256v64c0 17.408-14.336 31.744-31.744 31.744h-64c-17.92 0-32.256-14.336-32.256-31.744zM32.256 160h64c17.408 0 31.744 14.336 31.744 32.256v64c0 17.408-14.336 31.744-31.744 31.744h-64c-17.92 0-32.256-14.336-32.256-31.744v-64c0-17.92 14.336-32.256 32.256-32.256zM224.256 160h64c17.408 0 31.744 14.336 31.744 32.256v64c0 17.408-14.336 31.744-31.744 31.744h-64c-17.92 0-32.256-14.336-32.256-31.744v-64c0-17.92 14.336-32.256 32.256-32.256zM416.256 160h64c17.408 0 31.744 14.336 31.744 32.256v64c0 17.408-14.336 31.744-31.744 31.744h-64c-17.92 0-32.256-14.336-32.256-31.744v-64c0-17.92 14.336-32.256 32.256-32.256z" />
<glyph unicode="&#xe807;" d="M0 448.256v-160.256c0-17.92 14.336-31.744 32.256-31.744h159.744c17.92 0 32.256 13.824 32.256 31.744v160.256c0 17.408-14.336 31.744-32.256 31.744h-159.744c-17.92 0-32.256-14.336-32.256-31.744zM32.256 192.256c-17.92 0-32.256-14.336-32.256-32.256v-160.256c0-17.408 14.336-31.744 32.256-31.744h159.744c17.92 0 32.256 14.336 32.256 31.744v160.256c0 17.92-14.336 32.256-32.256 32.256h-159.744zM320 192.256c-17.92 0-31.744-14.336-31.744-32.256v-160.256c0-17.408 13.824-31.744 31.744-31.744h160.256c17.408 0 31.744 14.336 31.744 31.744v160.256c0 17.92-14.336 32.256-31.744 32.256h-160.256zM320 480c-17.92 0-31.744-14.336-31.744-31.744v-160.256c0-17.92 13.824-31.744 31.744-31.744h160.256c17.408 0 31.744 13.824 31.744 31.744v160.256c0 17.408-14.336 31.744-31.744 31.744h-160.256z" />
<glyph unicode="&#xe808;" d="M480.256 416h-256v32.256c0 17.408-14.848 31.744-32.256 31.744h-159.744c-17.92 0-32.256-14.336-32.256-31.744v-448.512c0-17.408 14.336-31.744 32.256-31.744h448c17.408 0 31.744 14.336 31.744 31.744v384.512c0 17.408-14.336 31.744-31.744 31.744z" />
<glyph unicode="&#xe809;" d="M480.256 416h-256v32.256c0 17.408-14.848 31.744-32.256 31.744h-159.744c-17.92 0-32.256-14.336-32.256-31.744v-448.512c0-17.408 14.336-31.744 32.256-31.744h448c17.408 0 31.744 14.336 31.744 31.744v384.512c0 17.408-14.336 31.744-31.744 31.744zM352.256 175.872c0-8.704-7.168-15.872-16.384-15.872h-47.616v-48.128c0-8.704-7.168-15.872-16.384-15.872h-31.744c-8.704 0-15.872 7.168-15.872 15.872v48.128h-48.128c-8.704 0-15.872 7.168-15.872 15.872v32.256c0 8.704 7.168 15.872 15.872 15.872h48.128v48.128c0 8.704 7.168 15.872 15.872 15.872h31.744c9.216 0 16.384-7.168 16.384-15.872v-48.128h47.616c9.216 0 16.384-7.168 16.384-15.872v-32.256z" />
<glyph unicode="&#xe80a;" d="M480.256 416h-256v32.256c0 17.408-14.848 31.744-32.256 31.744h-159.744c-17.92 0-32.256-14.336-32.256-31.744v-448.512c0-17.408 14.336-31.744 32.256-31.744h448c17.408 0 31.744 14.336 31.744 31.744v384.512c0 17.408-14.336 31.744-31.744 31.744zM342.016 192.256h-53.76v-80.384c0-8.704-7.168-15.872-16.384-15.872h-31.744c-8.704 0-15.872 7.168-15.872 15.872v80.384h-54.272c-9.728 0-12.8 8.192-7.168 15.872l82.944 106.496c5.632 7.168 14.848 7.168 20.48-0.512l82.944-105.984c5.632-7.68 2.56-15.872-7.168-15.872z" />
<glyph unicode="&#xe80b;" d="M480.256 416h-256v32.256c0 17.408-14.848 31.744-32.256 31.744h-159.744c-17.92 0-32.256-14.336-32.256-31.744v-448.512c0-17.408 14.336-31.744 32.256-31.744h448c17.408 0 31.744 14.336 31.744 31.744v384.512c0 17.408-14.336 31.744-31.744 31.744zM349.184 208.128l-82.944-106.496c-5.632-7.68-14.848-7.68-20.48 0l-82.944 106.496c-5.632 7.168-2.56 15.872 7.168 15.872h54.272v79.872c0 8.704 7.168 16.384 15.872 16.384h31.744c9.216 0 16.384-7.68 16.384-16.384v-79.872h53.76c9.728 0 12.8-8.192 7.168-15.872z" />
<glyph unicode="&#xe80c;" d="M32.256-6.4c0-17.408 14.336-25.6 31.744-25.6h384c17.408 0 32.256 8.192 32.256 25.6l64 278.528c0 8.704-7.168 15.872-16.384 15.872h-543.744c-9.216 0-16.384-7.168-16.384-15.872l64.512-278.528zM195.072 480h-131.072c-17.408 0-31.744-17.408-31.744-35.328v-76.8c0-8.704 7.168-15.872 15.872-15.872h415.744c9.216 0 16.384 7.168 16.384 15.872v16.384c0 17.408-14.336 31.744-32.256 31.744h-223.744v28.672c0 17.92-11.264 35.328-29.184 35.328z" />
<glyph unicode="&#xe80d;" d="M368.128 352h95.744c9.216 0 11.264 5.12 4.608 11.264l-104.96 105.472c-6.656 6.144-11.264 4.096-11.264-4.608v-96.256c0-8.704 7.168-15.872 15.872-15.872zM463.872 320.256h-128c-8.704 0-15.872 7.168-15.872 15.872v128c0 8.704-7.168 15.872-15.872 15.872h-240.128c-17.92 0-31.744-14.336-31.744-31.744v-448.512c0-17.408 13.824-31.744 31.744-31.744h384c17.92 0 32.256 14.336 32.256 31.744v304.128c0 9.216-7.168 16.384-16.384 16.384z" />
<glyph unicode="&#xe80e;" d="M368.128 352h95.744c9.216 0 11.264 5.12 4.608 11.264l-104.96 105.472c-6.656 6.144-11.264 4.096-11.264-4.608v-96.256c0-8.704 7.168-15.872 15.872-15.872zM463.872 320.256h-128c-8.704 0-15.872 7.168-15.872 15.872v128c0 8.704-7.168 15.872-15.872 15.872h-240.128c-17.92 0-31.744-14.336-31.744-31.744v-448.512c0-17.408 13.824-31.744 31.744-31.744h384c17.92 0 32.256 14.336 32.256 31.744v304.128c0 9.216-7.168 16.384-16.384 16.384zM96.256 367.872c0 9.216 7.168 16.384 15.872 16.384h128c8.704 0 15.872-7.168 15.872-16.384v-31.744c0-8.704-7.168-15.872-15.872-15.872h-128c-8.704 0-15.872 7.168-15.872 15.872v31.744zM352.256 80.128c0-8.704-7.168-15.872-16.384-15.872h-223.744c-8.704 0-15.872 7.168-15.872 15.872v31.744c0 9.216 7.168 16.384 15.872 16.384h223.744c9.216 0 16.384-7.168 16.384-16.384v-31.744zM384 208.128c0-8.704-7.168-15.872-15.872-15.872h-256c-8.704 0-15.872 7.168-15.872 15.872v31.744c0 9.216 7.168 16.384 15.872 16.384h256c8.704 0 15.872-7.168 15.872-16.384v-31.744z" />
<glyph unicode="&#xe80f;" d="M368.128 352h95.744c9.216 0 11.264 5.12 4.608 11.264l-104.96 105.472c-6.656 6.144-11.264 4.096-11.264-4.608v-96.256c0-8.704 7.168-15.872 15.872-15.872zM463.872 320.256h-128c-8.704 0-15.872 7.168-15.872 15.872v128c0 8.704-7.168 15.872-15.872 15.872h-128c-8.704 0-15.872-7.168-15.872-15.872v-352.256c0-8.704 7.168-15.872 15.872-15.872h287.744c9.216 0 16.384 7.168 16.384 15.872v192c0 9.216-7.168 16.384-16.384 16.384zM128 80.128v304.128h-79.872c-8.704 0-15.872-7.168-15.872-16.384v-384c0-8.704 7.168-15.872 15.872-15.872h320c8.704 0 15.872 7.168 15.872 15.872v80.384h-240.128c-8.704 0-15.872 7.168-15.872 15.872z" />
<glyph unicode="&#xe810;" d="M176.128 192.256h48.128v47.616c0 9.216 7.168 16.384 15.872 16.384h32.256c8.704 0 15.872-7.168 15.872-16.384v-47.616h48.128c8.704 0 15.872-7.168 15.872-16.384v-31.744c0-8.704-7.168-15.872-15.872-15.872h-48.128v-48.128c0-8.704-7.168-15.872-15.872-15.872h-32.256c-8.704 0-15.872 7.168-15.872 15.872v48.128h-48.128c-8.704 0-15.872 7.168-15.872 15.872v31.744c0 9.216 7.168 16.384 15.872 16.384zM336.384 320.256c-9.216 0-16.384 7.168-16.384 15.872v128c0 8.704-6.656 15.872-15.872 15.872h-239.616c-17.92 0-32.256-14.336-32.256-31.744v-448.512c0-17.408 14.336-31.744 32.256-31.744h384c17.408 0 31.744 14.336 31.744 31.744v304.128c0 9.216-7.168 16.384-15.872 16.384h-128zM352.256 464.128v-96.256c0-8.704 7.168-15.872 15.872-15.872h96.256c8.704 0 10.752 5.12 4.608 11.264l-105.472 105.472c-6.144 6.144-11.264 4.096-11.264-4.608z" />
<glyph unicode="&#xe811;" d="M368.128 352h95.744c9.216 0 11.264 5.12 4.608 11.264l-104.96 105.472c-6.656 6.144-11.264 4.096-11.264-4.608v-96.256c0-8.704 7.168-15.872 15.872-15.872zM463.872 320.256h-128c-8.704 0-15.872 7.168-15.872 15.872v128c0 8.704-7.168 15.872-15.872 15.872h-240.128c-17.92 0-31.744-14.336-31.744-31.744v-448.512c0-17.408 13.824-31.744 31.744-31.744h384c17.92 0 32.256 14.336 32.256 31.744v304.128c0 9.216-7.168 16.384-16.384 16.384zM342.016 160h-53.76v-79.872c0-8.704-7.168-15.872-16.384-15.872h-31.744c-8.704 0-15.872 7.168-15.872 15.872v79.872h-54.272c-9.728 0-12.8 8.704-7.168 15.872l82.944 106.496c5.632 7.68 14.848 7.68 20.48 0l82.944-106.496c5.632-7.168 2.56-15.872-7.168-15.872z" />
<glyph unicode="&#xe812;" d="M368.128 352h95.744c9.216 0 11.264 5.12 4.608 11.264l-104.96 105.472c-6.656 6.144-11.264 4.096-11.264-4.608v-96.256c0-8.704 7.168-15.872 15.872-15.872zM463.872 320.256h-128c-8.704 0-15.872 7.168-15.872 15.872v128c0 8.704-7.168 15.872-15.872 15.872h-240.128c-17.92 0-31.744-14.336-31.744-31.744v-448.512c0-17.408 13.824-31.744 31.744-31.744h384c17.92 0 32.256 14.336 32.256 31.744v304.128c0 9.216-7.168 16.384-16.384 16.384zM169.984 192.256h54.272v79.872c0 8.704 7.168 15.872 15.872 15.872h31.744c9.216 0 16.384-7.168 16.384-15.872v-79.872h53.76c9.728 0 12.8-8.704 7.168-16.384l-82.944-106.496c-5.632-7.168-14.848-7.168-20.48 0.512l-82.944 105.984c-5.632 7.68-2.56 16.384 7.168 16.384z" />
<glyph unicode="&#xe813;" d="M320 480h-31.744c0 32.256-14.336 32.256-32.256 32.256s-31.744 0-31.744-32.256h-32.256c-20.48 0-31.744-14.848-31.744-33.28v-48.128c0-9.216 7.168-14.336 15.872-14.336h159.744c9.216 0 16.384 5.12 16.384 14.336v48.128c0 18.432-8.704 33.28-32.256 33.28zM384 448.256v-81.92c0-8.704-7.168-14.336-15.872-14.336h-224.256c-8.704 0-15.872 5.632-15.872 14.336v81.92h-64c-17.92 0-31.744-15.872-31.744-33.792v-416.256c0-17.408 13.824-30.208 31.744-30.208h384c17.92 0 32.256 12.8 32.256 30.208v416.256c0 17.92-14.336 33.792-32.256 33.792h-64z" />
<glyph unicode="&#xe814;" d="M448 448.256h-64v-81.92c0-8.704-7.168-14.336-15.872-14.336h-224.256c-8.704 0-15.872 5.632-15.872 14.336v81.92h-64c-17.92 0-31.744-15.872-31.744-33.792v-416.256c0-17.408 13.824-30.208 31.744-30.208h384c17.92 0 32.256 12.8 32.256 30.208v416.256c0 17.92-14.336 33.792-32.256 33.792zM384 47.872c0-8.704-7.168-15.872-15.872-15.872h-224.256c-8.704 0-15.872 7.168-15.872 15.872v32.256c0 8.704 7.168 15.872 15.872 15.872h224.256c8.704 0 15.872-7.168 15.872-15.872v-32.256zM384 144.128c0-8.704-7.168-15.872-15.872-15.872h-224.256c-8.704 0-15.872 7.168-15.872 15.872v31.744c0 9.216 7.168 16.384 15.872 16.384h224.256c8.704 0 15.872-7.168 15.872-16.384v-31.744zM384 239.872c0-8.704-7.168-15.872-15.872-15.872h-224.256c-8.704 0-15.872 7.168-15.872 15.872v32.256c0 8.704 7.168 15.872 15.872 15.872h224.256c8.704 0 15.872-7.168 15.872-15.872v-32.256zM176.128 384.256h159.744c9.216 0 16.384 5.12 16.384 14.336v48.128c0 18.432-8.704 33.28-32.256 33.28h-31.744c0 32.256-14.336 32.256-32.256 32.256s-31.744 0-31.744-32.256h-32.256c-20.48 0-31.744-14.848-31.744-33.28v-48.128c0-9.216 7.168-14.336 15.872-14.336z" />
<glyph unicode="&#xe815;" d="M480.256 480h-448c-17.92 0-32.256-16.384-32.256-34.304v-351.232c0-17.92 14.336-30.208 32.256-30.208h31.744v-76.288c0-17.92 12.8-20.992 28.672-13.312l172.544 89.6h215.040c17.408 0 31.744 12.288 31.744 30.208v351.232c0 17.92-14.336 34.304-31.744 34.304z" />
<glyph unicode="&#xe816;" d="M480.256 480h-448c-17.408 0-32.256-16.384-32.256-34.304v-351.232c0-17.92 14.848-30.208 32.256-30.208h31.744v-76.288c0-17.92 13.312-20.992 29.184-13.312l172.032 89.6h215.040c17.408 0 31.744 12.288 31.744 30.208v351.232c0 17.92-14.336 34.304-31.744 34.304zM192.512 270.592c0-8.704-7.168-15.872-16.384-15.872h-31.744c-8.704 0-15.872 7.168-15.872 15.872v31.744c0 9.216 7.168 16.384 15.872 16.384h31.744c9.216 0 16.384-7.168 16.384-16.384v-31.744zM288.256 270.592c0-8.704-7.168-15.872-15.872-15.872h-32.256c-8.704 0-15.872 7.168-15.872 15.872v31.744c0 9.216 7.168 16.384 15.872 16.384h32.256c8.704 0 15.872-7.168 15.872-16.384v-31.744zM384.512 270.592c0-8.704-7.168-15.872-16.384-15.872h-31.744c-8.704 0-15.872 7.168-15.872 15.872v31.744c0 9.216 7.168 16.384 15.872 16.384h31.744c9.216 0 16.384-7.168 16.384-16.384v-31.744z" />
<glyph unicode="&#xe817;" d="M32.256 352c-17.92 0-32.256-14.848-32.256-32.768v-190.976c0-18.432 14.336-32.256 32.256-32.256h31.744v-106.496c0-17.92 16.896-26.624 28.672-13.824l108.544 120.32h87.040c17.408 0 31.744 13.824 31.744 32.256v190.976c0 17.92-14.336 32.768-31.744 32.768h-256zM224.256 480c-17.92 0-32.256-14.848-32.256-32.768v-62.976h128c17.92 0 32.256-14.336 32.256-32.256v-173.568l67.072-74.752c11.776-12.8 28.672-4.096 28.672 13.824v106.496h32.256c17.408 0 31.744 13.824 31.744 32.256v190.976c0 17.92-14.336 32.768-31.744 32.768h-256z" />
<glyph unicode="&#xe818;" d="M416.256 256.256v0 64c0 88.064-71.68 159.744-160.256 159.744s-159.744-71.68-159.744-159.744v-64c-17.92 0-32.256-14.336-32.256-32.256v-224.256c0-17.408 14.336-31.744 32.256-31.744h320c17.408 0 31.744 14.336 31.744 31.744v224.256c0 17.92-14.336 32.256-31.744 32.256zM256 416c52.736 0 96.256-43.008 96.256-95.744v-64h-192v64c0 52.736 43.008 95.744 95.744 95.744z" />
<glyph unicode="&#xe819;" d="M320 256.256h-159.744v64c0 52.736 43.008 95.744 95.744 95.744 41.984 0 77.824-27.136 90.624-64.512 6.144-16.896 19.456-31.232 37.376-31.232v0c17.92 0 32.256 14.336 28.672 31.744-14.336 72.704-79.36 128-156.672 128-88.576 0-159.744-71.68-159.744-159.744v-64c-17.92 0-32.256-14.336-32.256-32.256v-224.256c0-17.408 14.336-31.744 32.256-31.744h320c17.408 0 31.744 14.336 31.744 31.744v224.256c0 17.92-14.336 32.256-31.744 32.256h-96.256z" />
<glyph unicode="&#xe81a;" d="M281.6 294.656c4.096 13.312 6.656 27.136 6.656 41.472 0 79.36-64.512 143.872-143.872 143.872s-143.872-64.512-143.872-143.872 64.512-143.872 143.872-143.872c14.336 0 28.16 2.56 40.96 6.656l6.656-6.656v-64h64v-64h64v-64.512h64.512l32.256-31.744h95.232v96.256l-230.4 230.4zM112.64 320.256c-26.624 0-48.128 20.992-48.128 47.616s21.504 48.128 48.128 48.128 48.128-21.504 48.128-48.128-21.504-47.616-48.128-47.616z" />
<glyph unicode="&#xe81b;" d="M480.256 352h-64v96.256c0 17.408-14.336 31.744-32.256 31.744h-256c-17.92 0-31.744-14.336-31.744-31.744v-96.256h-64c-17.92 0-32.256-14.336-32.256-31.744v-256c0-17.92 14.336-32.256 32.256-32.256h64v-32.256c0-17.408 13.824-31.744 31.744-31.744h256c17.92 0 32.256 14.336 32.256 31.744v32.256h64c17.408 0 31.744 14.336 31.744 32.256v256c0 17.408-14.336 31.744-31.744 31.744zM160.256 416h192v-64h-192v64zM320 256.256v-64h-64v64h64zM352.256 32h-192v64h192v-64zM416.256 192.256h-64v64h64v-64z" />
<glyph unicode="&#xe81c;" d="M448 480h-384c-17.92 0-31.744-14.336-31.744-31.744v-448.512c0-17.408 13.824-31.744 31.744-31.744h384c17.92 0 32.256 14.336 32.256 31.744v448.512c0 17.408-14.336 31.744-32.256 31.744zM192 64.256h-64v64h64v-64zM192 160h-64v64h64v-64zM288.256 64.256h-64v64h64v-64zM288.256 160h-64v64h64v-64zM384 64.256h-64v64h64v-64zM384 160h-64v64h64v-64zM416.256 320.256h-320v95.744h320v-95.744z" />
<glyph unicode="&#xe820;" d="M416.256 326.4v112.128c0 8.704-6.656 9.728-15.872 9.728h-31.744c-9.216 0-16.384-1.024-16.384-9.728v-48.128l-84.992 84.992c-6.144 6.144-15.872 6.144-22.528 0l-273.408-268.8c-6.144-6.144-4.096-14.336 5.12-14.336h55.808v-201.728c0-8.704 7.168-22.528 15.872-22.528h128c9.216 0 15.872 13.824 15.872 22.528v128c0 8.704 7.68 9.728 16.384 9.728h96.256c8.704 0 15.36-1.024 15.36-9.728v-128c0-8.704 7.68-22.528 16.384-22.528h128c9.216 0 15.872 13.824 15.872 22.528v201.728h55.296c9.216 0 10.752 8.192 4.608 14.336l-123.904 119.808z" />
<glyph unicode="&#xe821;" d="M480.256 384.256h-32.256v15.872c0 8.704-7.168 15.872-15.872 15.872h-32.256c-8.704 0-15.872-7.168-15.872-15.872v-15.872h-31.744v64c0 17.408-14.336 31.744-32.256 31.744h-128c-17.92 0-31.744-14.336-31.744-31.744v-64h-32.256v15.872c0 8.704-7.168 15.872-15.872 15.872h-32.256c-8.704 0-15.872-7.168-15.872-15.872v-15.872h-31.744c-17.92 0-32.256-14.336-32.256-32.256v-352.256c0-17.408 14.336-31.744 32.256-31.744h448c17.408 0 31.744 14.336 31.744 31.744v352.256c0 17.92-14.336 32.256-31.744 32.256zM288.256 384.256h-64v31.744h64v-31.744z" />
<glyph unicode="&#xe822;" d="M508.416 145.152l-53.76 241.152c-3.584 16.896-20.992 30.208-38.4 30.208 0 17.408-14.336 31.744-32.256 31.744h-31.744c-17.92 0-32.256-14.336-32.256-31.744-17.92 0-31.744-13.824-31.744-31.232v-65.024h-64v65.024c0 17.408-14.336 31.232-32.256 31.232 0 17.408-14.336 31.744-31.744 31.744h-32.256c-17.92 0-31.744-14.336-31.744-31.744-17.92 0-35.328-13.312-38.912-30.208l-53.248-239.104c-2.56-9.216-4.096-18.432-4.096-28.16 0-60.416 50.176-119.296 112.128-119.296 59.904 0 109.056 32.256 111.616 96.256h0.512v96.256h64v-96.256c2.56-64 51.712-96.256 111.616-96.256 61.952 0 112.128 54.272 112.128 114.688 0 9.216-1.536 22.528-3.584 30.72zM112.128 64.256c-26.624 0-48.128 21.504-48.128 47.616s21.504 48.128 48.128 48.128 48.128-21.504 48.128-48.128-22.016-47.616-48.128-47.616zM399.872 64.256c-26.112 0-47.616 21.504-47.616 47.616s21.504 48.128 47.616 48.128 48.128-21.504 48.128-48.128-21.504-47.616-48.128-47.616z" />
<glyph unicode="&#xe823;" d="M502.784 22.784l-99.84 98.816c0 0 0 0 0 0 28.16 37.376 45.056 83.968 45.056 134.656 0 123.392-100.352 223.744-223.744 223.744s-224.256-100.352-224.256-223.744 100.352-224.256 224.256-224.256c50.176 0 96.768 16.896 134.144 45.056 0 0 0 0 0 0l98.816-99.84c6.656-6.144 14.848-9.216 23.040-9.216s16.384 3.072 22.528 9.216c12.288 12.8 12.288 32.768 0 45.568zM364.032 258.816c-28.672-7.168-35.84 35.84-70.144 69.12-37.888 36.864-81.408 45.056-75.776 70.144 4.096 18.432 61.44 26.624 116.736-25.088 55.296-51.712 49.152-109.056 29.184-114.176z" />
<glyph unicode="&#xe825;" d="M416.256 480h-320c-17.92 0-32.256-14.336-32.256-31.744v-448.512c0-17.408 14.336-31.744 32.256-31.744h320c17.408 0 31.744 14.336 31.744 31.744v448.512c0 17.408-14.336 31.744-31.744 31.744zM271.872-0.256h-31.744c-8.704 0-15.872 7.168-15.872 16.384v31.744c0 9.216 7.168 16.384 15.872 16.384h31.744c9.216 0 16.384-7.168 16.384-16.384v-31.744c0-9.216-7.168-16.384-16.384-16.384zM384 96h-256v320h256v-320z" />
<glyph unicode="&#xe826;" d="M480.256 96v320c0 17.92-14.336 32.256-32.256 32.256h-384c-17.92 0-31.744-14.336-31.744-32.256v-320c-17.92 0-32.256-14.336-32.256-31.744v-32.256c0-17.92 14.336-32.256 32.256-32.256h448c17.408 0 31.744 14.336 31.744 32.256v32.256c0 17.408-14.336 31.744-31.744 31.744zM96.256 384.256h320v-224.256h-320v224.256zM320 64.256h-128v31.744h128v-31.744z" />
<glyph unicode="&#xe827;" d="M160.256-32h192c17.408 0 31.744 14.336 31.744 31.744v0c0 17.92-14.336 32.256-31.744 32.256h-64v64h192c17.408 0 31.744 14.336 31.744 32.256v320c0 17.408-14.336 31.744-31.744 31.744h-448c-17.92 0-32.256-14.336-32.256-31.744v-320c0-17.92 14.336-32.256 32.256-32.256h192v-64h-64c-17.92 0-32.256-14.336-32.256-32.256v0c0-17.408 14.336-31.744 32.256-31.744zM448 160h-384v256h384v-256z" />
<glyph unicode="&#xe828;" d="M480.256 480h-448c-17.92 0-32.256-14.336-32.256-31.744v-448.512c0-17.408 14.336-31.744 32.256-31.744h448c17.408 0 31.744 14.336 31.744 31.744v448.512c0 17.408-14.336 31.744-31.744 31.744zM335.872 352c26.624 0 48.128-21.504 48.128-48.128s-21.504-47.616-48.128-47.616-47.616 21.504-47.616 47.616 21.504 48.128 47.616 48.128zM416.256 80.128c0-8.704-7.168-15.872-16.384-15.872h-287.744c-8.704 0-15.872 7.168-15.872 15.872v128c0 8.704 4.608 20.992 11.264 27.136l40.96 41.472c6.656 6.144 16.384 6.144 23.040 0l116.736-116.736 52.224 52.736c6.656 6.144 16.384 6.144 23.040 0l40.96-41.472c6.656-6.144 11.776-18.432 11.776-27.136v-64z" />
<glyph unicode="&#xe829;" d="M512 416c0 17.92-14.336 32.256-31.744 32.256h-448c-17.92 0-32.256-14.336-32.256-32.256v-384c0-17.92 14.336-32.256 32.256-32.256h448c17.408 0 31.744 14.336 31.744 32.256v384zM128.512 64.256h-64v64h64v-64zM128.512 192.256h-64v64h64v-64zM128.512 320.256h-64v64h64v-64zM329.728 215.296l-118.784-84.992c-6.656-5.12-18.944-1.536-18.944 8.192v171.008c0 9.728 13.312 13.312 19.456 8.192l115.712-84.992c6.656-4.608 8.704-12.8 2.56-17.408zM448.512 64.256h-64v64h64v-64zM448.512 192.256h-64v64h64v-64zM448.512 320.256h-64v64h64v-64z" />
<glyph unicode="&#xe82a;" d="M192 192.256c0-35.346 28.654-64 64-64s64 28.654 64 64c0 35.346-28.654 64-64 64-35.346 0-64-28.654-64-64zM480.256 416h-192v32.256c0 17.408-14.336 31.744-32.256 31.744h-159.744c-17.92 0-32.256-14.336-32.256-31.744v-32.256h-31.744c-17.92 0-32.256-14.336-32.256-31.744v-384.512c0-17.408 14.336-31.744 32.256-31.744h448c17.408 0 31.744 14.336 31.744 31.744v384.512c0 17.408-14.336 31.744-31.744 31.744zM256 64.256c-70.656 0-128 56.832-128 128s57.344 128 128 128 128-57.344 128-128-57.344-128-128-128z" />
<glyph unicode="&#xe82b;" d="M476.672 448.256h-60.416v15.872c0 8.704-10.752 15.872-19.456 15.872h-31.744c-9.216 0-12.8-7.168-12.8-15.872v-15.872h-64v15.872c0 8.704-7.168 15.872-16.384 15.872h-31.744c-8.704 0-15.872-7.168-15.872-15.872v-15.872h-64v15.872c0 8.704-4.096 15.872-12.8 15.872h-32.256c-8.704 0-18.944-7.168-18.944-15.872v-15.872h-60.928c-17.92 0-35.328-14.336-35.328-32.256v-416.256c0-17.408 17.408-31.744 35.328-31.744h441.344c17.92 0 35.328 14.336 35.328 31.744v416.256c0 17.92-17.408 32.256-35.328 32.256zM160.256 32h-64v64h64v-64zM160.256 160h-64v64h64v-64zM288.256 32h-64v64h64v-64zM288.256 160h-64v64h64v-64zM416.256 32h-64v64h64v-64zM416.256 160h-64v64h64v-64zM448 288h-384v96.256h32.256v-16.384c0-8.704 10.24-15.872 18.944-15.872h32.256c8.704 0 12.8 7.168 12.8 15.872v16.384h64v-16.384c0-8.704 7.168-15.872 15.872-15.872h31.744c9.216 0 16.384 7.168 16.384 15.872v16.384h64v-16.384c0-8.704 3.584-15.872 12.8-15.872h31.744c8.704 0 19.456 7.168 19.456 15.872v16.384h31.744v-96.256z" />
<glyph unicode="&#xe82c;" d="M448 384.256h-64v64c0 17.408-14.336 31.744-31.744 31.744h-192c-17.92 0-32.256-14.336-32.256-31.744v-64h-64c-17.408 0-31.744-14.848-31.744-32.256s0-31.744 31.744-31.744v-320.512c0-17.408 14.336-31.744 32.256-31.744h320c17.408 0 31.744 14.336 31.744 31.744v320.512c32.256 0 32.256 14.336 32.256 31.744s-14.336 32.256-32.256 32.256zM192 416h128v-31.744h-128v31.744zM224.256 80.128c0-8.704-7.168-15.872-16.384-15.872h-31.744c-8.704 0-15.872 7.168-15.872 15.872v192c0 8.704 7.168 15.872 15.872 15.872h31.744c9.216 0 16.384-7.168 16.384-15.872v-192zM352.256 80.128c0-8.704-7.168-15.872-16.384-15.872h-31.744c-8.704 0-15.872 7.168-15.872 15.872v192c0 8.704 7.168 15.872 15.872 15.872h31.744c9.216 0 16.384-7.168 16.384-15.872v-192z" />
<glyph unicode="&#xe82d;" d="M171.008-18.176c-43.52 0-87.552 16.896-120.832 50.176-32.256 32.768-50.176 75.264-50.176 121.344 0 45.568 17.92 88.576 50.176 120.832l169.472 169.984c48.128 48.128 126.464 47.616 174.592 0 47.616-48.128 47.616-126.464 0-174.592l-169.984-169.472c-29.184-29.184-76.8-29.184-106.496 0-29.184 29.184-29.184 76.8 0 106.496l169.984 169.472c10.752 10.752 27.648 10.752 38.4 0 10.752-10.752 10.752-27.648 0-38.4l-169.472-169.472c-8.192-8.192-8.192-21.504 0-29.696 7.68-8.192 20.992-8.192 29.184 0l169.984 169.472c26.624 27.136 26.624 70.656 0 97.792-27.136 26.624-70.656 26.624-97.28 0l-169.984-169.984c-22.016-22.016-34.304-51.2-34.304-82.432s12.288-60.416 34.304-82.944c45.568-45.568 119.296-45.568 164.864 0h0.512c0 0 0 0 0 0l237.568 237.568c10.24 10.752 27.648 10.752 38.4 0 10.752-10.24 10.752-27.648 0-38.4l-248.832-248.832-0.512 0.512c-31.744-26.112-70.656-39.424-109.568-39.424z" />
<glyph unicode="&#xe82e;" d="M32.256-0.256v96.256l239.616 240.128 96.256-96.256-240.128-240.128zM320 384.256l50.176 49.664c18.432 18.944 49.152 18.944 67.584 0l28.16-28.16c18.944-18.432 18.944-49.152 0-67.584l-49.664-50.176-96.256 96.256z" />
<glyph unicode="&#xe82f;" d="M244.224 100.608l-81.92 76.288c-6.144 6.144-16.896 6.144-23.040 0l-139.264-129.536v-17.408c0-16.384 14.336-30.208 32.256-30.208h448c17.408 0 31.744 13.824 31.744 30.208v17.408l-138.752 129.536c-6.656 6.144-17.408 6.144-23.552 0l-81.92-76.288c-6.656-6.144-16.896-6.144-23.552 0zM418.304 219.392l81.92-76.288c6.656-6.144 11.776-4.096 11.776 5.12v164.352c0 8.704-5.12 11.264-11.776 5.12l-81.92-76.288c-6.144-6.144-6.144-15.872 0-22.016zM32.256 448.256c-17.92 0-32.256-13.824-32.256-30.208v-5.12l243.2-227.84c6.144-6.144 16.896-6.144 23.040 0l245.76 230.4v2.56c0 16.384-14.336 30.208-31.744 30.208h-448zM0 312.576v-164.352c0-9.216 5.12-11.264 11.776-5.12l81.92 76.288c6.144 6.144 6.144 15.872 0 22.016l-81.92 76.288c-6.656 6.144-11.776 3.584-11.776-5.12z" />
<glyph unicode="&#xe830;" d="M64 128.256v192h34.816c8.704 0 18.944 6.656 22.528 14.336 6.144 12.8 13.312 25.088 21.504 36.864 5.12 7.168 2.56 12.8-6.656 12.8h-103.936c-17.92 0-32.256-14.336-32.256-32.256v-320c0-17.92 14.336-32.256 32.256-32.256h448c17.408 0 31.744 14.336 31.744 32.256v208.896c0 8.704-5.632 11.264-12.288 6.144l-44.032-35.84c-7.168-5.632-7.68-13.312-7.68-22.016v-60.928h-384zM176.64 174.848c28.672 70.656 85.504 142.848 175.616 113.152v-44.032c0-19.968 11.776-26.112 26.112-13.312l128.512 110.080c7.168 6.144 7.168 16.384-0.512 22.528l-128 110.592c-14.336 12.288-26.112 6.144-26.112-13.824v-44.032c-106.496 0-192-86.016-192-192 0-16.896 2.048-33.28 6.144-48.64 2.048-8.704 7.168-8.704 10.24-0.512z" />
<glyph unicode="&#xe831;" d="M397.824-28.928l-141.824 78.336-141.824-78.336c-13.824-7.68-23.552-1.024-20.48 15.36l27.136 165.888-114.176 116.224c-11.264 11.264-7.68 23.040 8.192 25.088l157.184 24.064 71.168 151.040c7.168 14.848 18.432 14.848 25.6 0l71.168-151.040 157.184-24.064c15.872-2.048 19.456-13.824 8.192-25.088l-113.664-116.224 27.136-165.888c2.56-16.384-7.168-23.040-20.992-15.36z" />
<glyph unicode="&#xe832;" d="M278.528 23.296c-12.288-12.8-32.256-12.8-44.544 0l-196.608 204.8c-49.664 50.176-49.664 132.096 0 182.272 50.176 50.176 131.584 50.176 181.76 0l37.376-45.568 36.864 45.568c50.176 50.176 131.584 50.176 181.76 0s50.176-132.096 0-182.272l-196.608-204.8z" />
<glyph unicode="&#xe833;" d="M494.592 246.016l-223.232 225.792c-5.632 5.632-7.168 8.192-10.24 8.192-5.632 0-5.12-8.704-5.12-23.552v-73.728l-98.816-93.184-105.472-9.728c-22.016-4.608-29.696-20.992-13.824-36.864l83.456-82.944-30.72-30.72-89.088-145.408c-3.584-8.192-0.512-11.264 7.68-7.68l145.408 89.088 30.72 30.72 82.432-81.92c6.144-6.144 12.288-9.216 17.92-9.216 8.704 0 15.36 7.168 18.432 20.48l10.24 103.424 93.696 95.232h74.752c22.528 0 27.648 6.144 11.776 22.016z" />
<glyph unicode="&#xe834;" d="M303.104 460.544l-94.208-94.72c-8.192-8.192-10.752-19.456-8.704-30.208-0.512 0 19.456-100.352 19.456-100.352l-58.368-58.368c-12.8-13.312-12.8-34.304 0-47.616s34.304-12.8 47.616 0l26.624 27.136 7.68-39.424-57.856-58.368c-13.312-13.312-34.304-13.312-47.616 0l-47.104 47.104c-13.312 13.312-13.312 34.304 0 47.616l71.68 71.68c17.408 17.408 5.632 39.936-1.024 46.080-12.8 13.312-33.792 13.312-47.104 0l-94.72-94.208c-26.112-26.112-26.112-68.608 0-94.72l94.72-94.72c26.112-26.112 68.608-26.112 94.72 0l94.208 94.72c8.192 8.192 10.752 19.456 8.704 30.208 0.512 0-19.456 100.864-19.456 100.864l58.368 57.856c12.8 13.312 12.8 34.304 0 47.616s-34.304 12.8-47.616 0l-26.624-27.136-7.68 39.936 58.368 57.856c12.8 13.312 33.792 13.312 47.104 0l47.104-47.104c13.312-13.312 13.312-34.304 0-47.104l-71.68-72.192c-12.8-12.288-9.216-37.376 1.024-46.080v0c12.8-13.312 34.304-13.312 47.104 0l94.72 94.208c26.112 26.112 26.112 68.608 0 94.72l-94.72 94.72c-26.112 26.112-68.608 26.112-94.72 0z" />
<glyph unicode="&#xe835;" d="M256 480c-141.312 0-256-114.688-256-256s114.688-256 256-256 256 114.688 256 256-114.688 256-256 256zM288.256 80.128c0-8.704-7.168-15.872-16.384-15.872h-31.744c-8.704 0-15.872 7.168-15.872 15.872v31.744c0 9.216 7.168 16.384 15.872 16.384h31.744c9.216 0 16.384-7.168 16.384-16.384v-31.744zM288.256 197.376v-21.504c0-8.704-7.168-15.872-16.384-15.872h-31.744c-8.704 0-15.872 7.168-15.872 15.872v48.128c0 17.92 3.584 32.256 23.552 32.256 13.312 0 24.064 0 24.064 0 9.216 0 16.384 7.168 16.384 15.872v31.744c0 9.216-7.168 16.384-16.384 16.384h-31.744c-8.704 0-15.872-7.168-15.872-16.384 0-4.096-3.072-15.872-16.384-15.872h-31.744c-12.288 0-16.384 7.168-14.848 15.872 7.68 45.568 47.104 80.384 94.72 80.384 52.736 0 96.256-43.52 96.256-96.256 0-41.472-27.136-77.312-64-90.624z" />
<glyph unicode="&#xe836;" d="M256 480c-141.312 0-256-114.688-256-256s114.688-256 256-256 256 114.688 256 256-114.688 256-256 256zM288.256 80.128c0-8.704-7.168-15.872-16.384-15.872h-31.744c-8.704 0-15.872 7.168-15.872 15.872v31.744c0 9.216 7.168 16.384 15.872 16.384h31.744c9.216 0 16.384-7.168 16.384-16.384v-31.744zM288.256 175.872c0-8.704-7.168-15.872-16.384-15.872h-31.744c-8.704 0-15.872 7.168-15.872 15.872v192c0 9.216 7.168 16.384 15.872 16.384h31.744c9.216 0 16.384-7.168 16.384-16.384v-192z" />
<glyph unicode="&#xe837;" d="M256 480c-141.312 0-256-114.688-256-256s114.688-256 256-256 256 114.688 256 256-114.688 256-256 256zM288.256 80.128c0-8.704-7.168-15.872-16.384-15.872h-31.744c-8.704 0-15.872 7.168-15.872 15.872v192c0 8.704 7.168 15.872 15.872 15.872h31.744c9.216 0 16.384-7.168 16.384-15.872v-192zM288.256 336.128c0-8.704-7.168-15.872-16.384-15.872h-31.744c-8.704 0-15.872 7.168-15.872 15.872v31.744c0 9.216 7.168 16.384 15.872 16.384h31.744c9.216 0 16.384-7.168 16.384-16.384v-31.744z" />
<glyph unicode="&#xe83a;" d="M495.104 164.096c10.24 5.12 16.896 15.872 16.896 28.16s-6.656 22.528-16.896 27.648c-7.68 4.608-14.848 11.264-14.848 19.968s7.168 15.872 14.848 19.968c10.24 5.632 16.896 15.872 16.896 28.16 0 17.92-14.336 32.256-31.744 32.256h-112.128c-8.704 0-15.872 7.168-15.872 15.872v112.128c0 17.408-14.336 31.744-32.256 31.744h-15.872c-8.704 0-17.408-7.168-18.944-15.872-9.216-50.688-44.544-207.872-124.928-207.872h-32.256v31.744h-95.744c-17.92 0-32.256-14.336-32.256-31.744v-224.256c0-17.92 14.336-32.256 32.256-32.256h95.744v32.256h64c0-64 64-64 64-64h224.256c17.408 0 31.744 14.336 31.744 31.744 0 12.288-6.656 23.040-16.896 28.16-7.68 4.608-14.848 11.264-14.848 19.968s7.168 15.872 14.848 19.968c10.24 5.632 16.896 15.872 16.896 28.16s-6.656 22.528-16.896 28.16c-7.68 4.096-14.848 11.264-14.848 19.968s7.168 15.36 14.848 19.968z" />
<glyph unicode="&#xe83b;" d="M421.888 192.256c17.92 0 35.84 13.824 39.936 30.72l49.152 225.792c4.608 17.408-6.656 31.232-24.576 31.232h-454.144c-17.92 0-32.256-14.336-32.256-31.744s14.336-32.256 32.256-32.256h31.744v-320c0-17.92 15.36-31.744 33.28-31.744h350.72c17.92 0 32.256 13.824 32.256 31.744s-14.336 32.256-32.256 32.256h-320v64h293.888zM96.256 16.128c-0.163-1.487-0.256-3.212-0.256-4.957 0-26.58 21.547-48.128 48.128-48.128 26.581 0 48.128 21.548 48.128 48.128 0 1.746-0.093 3.471-0.274 5.168 0.181 1.276 0.274 3 0.274 4.747 0 26.581-21.548 48.128-48.128 48.128-26.581 0-48.128-21.548-48.128-48.128 0-1.746 0.093-3.471 0.275-5.168zM352.256 16.128c-0.163-1.487-0.256-3.212-0.256-4.957 0-26.58 21.548-48.128 48.128-48.128 26.58 0 48.128 21.548 48.128 48.128 0 1.746-0.093 3.471-0.274 5.168 0.182 1.276 0.274 3 0.274 4.747 0 26.581-21.548 48.128-48.128 48.128-26.58 0-48.128-21.548-48.128-48.128 0-1.746 0.093-3.471 0.274-5.168z" />
<glyph unicode="&#xe83c;" d="M64-16.128v144.384h416.256c17.408 0 31.744 13.824 31.744 31.744v256c0 17.92-14.336 32.256-31.744 32.256h-416.256c0 17.408-14.336 31.744-31.744 31.744s-32.256-14.336-32.256-31.744v-464.384c0-8.704 7.168-15.872 15.872-15.872h32.256c8.704 0 15.872 7.168 15.872 15.872z" />
<glyph unicode="&#xe83d;" d="M15.872 305.92c-8.704 0.512-15.872-6.656-15.872-15.872v-65.536c0-8.704 7.168-15.872 15.872-16.384 57.856-4.096 112.128-28.672 153.6-70.144 41.472-41.472 66.048-95.744 69.632-154.112 0.512-8.704 7.68-15.872 16.384-15.872h66.56c8.704 0 15.872 7.168 15.36 16.384-4.096 86.528-40.96 164.864-98.816 222.72-57.344 57.344-135.68 94.72-222.72 98.816zM64 97.024c-17.92 0-33.28-7.168-45.056-18.432-11.776-11.776-18.944-26.624-18.944-44.544 0-17.408 7.168-31.744 18.944-43.008 11.776-11.776 27.136-15.872 45.056-15.872 17.92 0 33.792-7.168 45.056 24.576v0c11.776 0 18.944 21.504 18.944 38.912 0 17.92-7.168 30.72-18.944 42.496-11.776 11.264-27.136 15.872-45.056 15.872zM361.984 329.984c-89.6 89.6-210.944 145.92-345.6 150.016-9.216 0.512-16.384-6.656-16.384-15.872v-65.536c0-8.704 7.168-15.872 16.384-16.384 215.040-8.192 389.12-182.272 397.312-397.824 0.512-9.216 7.168-16.384 16.384-16.384h66.048c8.704 0 15.872 7.168 15.36 16.384-4.096 134.656-60.416 256.512-149.504 345.6z" />
<glyph unicode="&#xe83e;" d="M240.128-0.256h31.744c9.216 0 16.384 7.168 16.384 16.384v287.744c0 9.216-7.168 16.384-16.384 16.384h-31.744c-8.704 0-15.872-7.168-15.872-16.384v-287.744c0-9.216 7.168-16.384 15.872-16.384zM48.128-0.256h31.744c9.216 0 16.384 7.168 16.384 16.384v159.744c0 9.216-7.168 16.384-16.384 16.384h-31.744c-8.704 0-15.872-7.168-15.872-16.384v-159.744c0-9.216 7.168-16.384 15.872-16.384zM320 367.872v-351.744c0-9.216 7.168-16.384 15.872-16.384h32.256c8.704 0 15.872 7.168 15.872 16.384v351.744c0 9.216-7.168 16.384-15.872 16.384h-32.256c-8.704 0-15.872-7.168-15.872-16.384zM416.256 431.872v-415.744c0-9.216 7.168-16.384 15.872-16.384h31.744c9.216 0 16.384 7.168 16.384 16.384v415.744c0 9.216-7.168 16.384-16.384 16.384h-31.744c-8.704 0-15.872-7.168-15.872-16.384zM143.872-0.256h32.256c8.704 0 15.872 7.168 15.872 16.384v223.744c0 9.216-7.168 16.384-15.872 16.384h-32.256c-8.704 0-15.872-7.168-15.872-16.384v-223.744c0-9.216 7.168-16.384 15.872-16.384z" />
<glyph unicode="&#xe83f;" d="M258.56 480c-107.52 0-194.56-87.040-194.56-194.048 0-137.728 139.776-274.944 182.272-313.344 6.656-6.144 17.408-6.144 24.064 0 42.496 38.4 182.272 175.616 182.272 313.344 0 107.008-87.040 194.048-194.048 194.048zM258.56 192.256c-53.248 0-96.256 43.008-96.256 95.744s43.008 96.256 96.256 96.256 95.744-43.008 95.744-96.256-43.008-95.744-95.744-95.744z" />
<glyph unicode="&#xe840;" d="M256 480c-141.312 0-256-114.688-256-256s114.688-256 256-256 256 114.688 256 256-114.688 256-256 256zM64 224c0 52.736 21.504 100.864 55.808 135.168 0.512-63.488 8.192-87.040 40.448-119.296 31.744-31.744 79.872-88.064 79.872-152.064 0-28.16 7.68-47.616 16.384-55.808 0 0-0.512 0-0.512 0-105.984 0-192 86.016-192 192zM324.608 44.8c25.6 29.184 55.296 75.264 35.328 115.2-31.744 64-143.872 15.872-143.872 79.872s103.936-15.872 103.936 112.128c0 46.080-36.864 60.928-75.264 63.488 4.096 0.512 7.68 0.512 11.264 0.512 105.984 0 192-86.016 192-192 0-81.408-51.2-151.552-123.392-179.2z" />
<glyph unicode="&#xe841;" d="M448 224c0 0-31.744 0-64 0s-31.744 35.328-31.744 35.328v64c0 17.408-14.336 28.672-32.256 28.672h-128c-17.92 0-31.744-11.264-31.744-28.672 0-20.992 0-47.104 0-64 0-32.256-32.256-35.328-32.256-35.328h-64c0 0-31.744 3.072-31.744-28.672v-195.584c0-17.408 13.824-31.744 31.744-31.744h384c17.92 0 32.256 14.336 32.256 31.744 0 40.96 0 176.128 0 195.584 0 27.648-32.256 28.672-32.256 28.672zM256 32c-53.248 0-95.744 43.008-95.744 96.256s42.496 95.744 95.744 95.744 96.256-43.008 96.256-95.744-43.008-96.256-96.256-96.256zM27.648 417.024c-15.36-8.192-27.648-30.208-27.648-48.128v-48.64c0-17.92 14.336-32.256 32.256-32.256h31.744c17.92 0 32.256 14.336 32.256 32.256v64c0 17.408 13.824 31.744 31.744 31.744h256c17.92 0 32.256-14.336 32.256-31.744v-64c0-17.92 13.824-32.256 31.744-32.256h32.256c17.408 0 31.744 14.336 31.744 32.256v48.64c0 17.92-12.288 39.936-27.648 48.128-43.008 23.040-131.584 62.976-228.352 62.976s-185.344-39.936-228.352-62.976z" />
<glyph unicode="&#xe842;" d="M480.256 256.256h-35.328c-4.608 28.672-15.872 55.808-32.256 78.848l24.064 24.576c12.8 12.288 12.8 32.768 0 45.568-12.288 12.288-32.768 12.288-45.056 0l-24.576-24.576c-23.040 16.384-47.104 27.648-78.848 32.256v35.328c0 17.408-14.848 31.744-32.256 31.744s-31.744-14.336-31.744-31.744v-35.328c-32.256-4.608-56.32-15.872-79.36-32.256l-24.576 24.576c-12.288 12.288-32.768 12.288-45.568 0-12.288-12.8-12.288-33.28 0-45.568l24.576-24.576c-16.384-23.040-27.648-50.176-32.256-78.848h-34.816c-17.92 0-32.256-15.36-32.256-33.28 0-17.408 14.336-30.72 35.84-30.72h31.232c4.608-29.184 15.872-56.32 32.256-79.36l-24.576-24.576c-12.288-12.288-12.288-32.768 0-45.568 12.8-12.288 32.768-12.288 45.056 0l25.088 24.576c23.040-16.384 47.104-27.648 79.36-32.256v-35.328c0-17.408 14.336-31.744 31.744-31.744s32.256 14.336 32.256 31.744v35.328c31.744 4.608 55.808 15.872 78.848 32.256l24.576-24.576c12.8-12.288 32.768-12.288 45.056 0 12.8 12.8 12.8 33.28 0 45.568l-24.064 24.576c16.384 23.040 27.648 49.664 32.256 79.36h35.328c17.408 0 31.744 14.336 31.744 31.744s-14.336 32.256-31.744 32.256zM256 128.256c-53.248 0-95.744 43.008-95.744 95.744s42.496 96.256 95.744 96.256c52.736 0 96.256-43.52 96.256-96.256s-43.52-95.744-96.256-95.744z" />
<glyph unicode="&#xe843;" d="M475.648 148.736c-22.016 25.088-50.176 37.888-76.8 37.888-9.728 0-18.944-2.048-27.648-5.12l-57.856 66.048 102.912 117.76c22.528 26.112 28.672 61.952 13.312 79.36-15.36 17.92-32.256 35.328-32.256 35.328l-141.312-159.744-144.384 159.744c0 0-16.896-17.408-32.256-35.328-15.36-17.408-9.728-53.248 13.312-79.36l102.4-117.76-57.344-66.048c-9.216 3.072-18.432 5.12-27.648 5.12-26.624 0-54.784-12.8-76.8-37.888-39.936-46.080-44.544-115.2-10.24-154.624 15.36-17.408 35.84-26.112 57.856-26.112 26.112 0 54.272 12.8 76.288 38.4 26.624 30.208 36.864 70.656 31.744 105.984l67.072 79.872 64-79.872c-5.632-35.328 5.12-75.776 31.744-105.984 21.504-25.6 49.664-38.4 76.288-38.4 21.504 0 42.496 8.704 57.856 26.112 34.304 39.424 29.696 108.544-10.24 154.624zM140.8 90.368c-1.024-15.36-7.68-31.232-18.432-44.032-12.288-13.312-27.136-21.504-41.472-21.504-6.656 0-15.872 2.048-23.040 9.728-8.192 9.728-8.704 23.040-8.192 30.208 1.024 15.36 8.192 31.232 18.944 43.52 11.776 13.824 26.624 21.504 41.472 21.504 6.144 0 15.36-1.536 22.528-9.728 8.192-9.728 8.704-23.040 8.192-29.696zM450.56 34.56c-6.656-7.68-15.872-9.728-22.528-9.728-14.336 0-29.696 8.192-41.472 21.504-10.752 12.8-17.408 28.672-18.432 44.032-0.512 6.656 0 19.968 8.192 29.696 6.656 8.192 15.872 9.728 22.528 9.728 14.336 0 29.696-7.68 41.472-21.504 10.752-12.288 17.408-28.16 18.432-43.52 0.512-7.168 0-20.48-8.192-30.208z" />
<glyph unicode="&#xe844;" d="M238.080 341.76c0 0-9.728 9.728-22.016 22.016-12.288 12.288-32.256 12.288-44.544-0.512l-23.040-22.528c-12.288-12.288-13.312-31.744-1.536-43.008l20.48-20.992-156.16-156.16c-6.144-6.144-11.264-18.432-11.264-27.136v-109.568c0-8.704 7.168-15.872 15.872-15.872h109.056c9.216 0 21.504 5.12 27.648 11.264l156.16 156.16c0 0 9.216-9.216 20.48-20.48 11.776-11.776 31.232-10.752 43.52 2.048l22.528 22.528c12.8 12.288 12.8 32.256 0.512 44.544l-22.016 22.016 110.080 110.080c37.376 37.376 37.376 98.304 0 135.68s-98.304 37.376-135.68 0l-110.080-110.080zM114.688 32h-50.688v51.2l148.992 148.48 50.176-50.688-148.48-148.992z" />
<glyph unicode="&#xe845;" d="M242.176 257.792c-6.656 6.656-16.384 6.656-23.040 0l-214.528-214.528c-6.144-6.144-6.144-16.384 0-22.528l54.784-54.784c6.144-6.144 16.384-6.144 22.528 0l214.528 214.528c6.144 6.656 6.144 16.384 0 23.040l-54.272 54.272zM392.704 299.264l-54.784 54.784c-6.144 6.144-16.384 6.144-22.528 0l-54.784-54.784c-6.144-6.144-6.144-16.384 0-22.528l54.784-54.784c6.144-6.144 16.384-6.144 22.528 0l54.784 54.784c6.144 6.144 6.144 16.384 0 22.528zM320 384.256c17.92 0 32.256 13.824 32.256 31.744v32.256c0 17.408-14.336 31.744-32.256 31.744s-31.744-14.336-31.744-31.744v-32.256c0-17.92 13.824-31.744 31.744-31.744zM417.28 346.368c8.192 0 16.384 3.072 22.528 9.728l22.528 22.528c12.8 12.288 12.8 32.768 0 45.056s-32.768 12.8-45.056 0l-22.528-22.528c-12.8-12.288-12.8-32.768 0-45.056 6.144-6.656 14.336-9.728 22.528-9.728zM486.4 320.256h-31.744c-17.92 0-32.256-14.336-32.256-32.256s14.336-31.744 32.256-31.744h31.744c17.92 0 32.256 13.824 32.256 31.744s-14.336 32.256-32.256 32.256zM439.808 219.904c-12.8 12.8-32.768 12.8-45.056 0s-12.8-32.256 0-45.056l22.528-22.528c6.144-6.144 14.336-9.216 22.528-9.216s16.384 3.072 22.528 9.216c12.8 12.288 12.8 32.768 0 45.056l-22.528 22.528zM213.504 356.096c6.144-6.656 14.336-9.728 22.528-9.728s16.384 3.072 22.528 9.728c12.8 12.288 12.8 32.768 0 45.056l-22.528 22.528c-12.288 12.8-32.768 12.8-45.056 0s-12.8-32.768 0-45.056l22.528-22.528z" />
<glyph unicode="&#xe846;" d="M480.256 480h-448c-17.92 0-32.256-14.336-32.256-31.744v-448.512c0-17.408 14.336-31.744 32.256-31.744h448c17.408 0 31.744 14.336 31.744 31.744v448.512c0 17.408-14.336 31.744-31.744 31.744zM416.256 320.256c0-17.92-14.336-32.256-32.256-32.256s-31.744 14.336-31.744 32.256h-64v-192h31.744c17.92 0 32.256-14.336 32.256-32.256s-14.336-31.744-32.256-31.744h-128c-17.408 0-31.744 13.824-31.744 31.744s14.336 32.256 31.744 32.256h32.256v192h-64c0-17.92-14.336-32.256-32.256-32.256s-31.744 14.336-31.744 32.256v31.744c0 17.92 14.336 32.256 31.744 32.256h256c17.92 0 32.256-14.336 32.256-32.256v-31.744z" />
<glyph unicode="&#xe847;" d="M480.256 480h-448c-17.92 0-32.256-14.336-32.256-31.744v-448.512c0-17.408 14.336-31.744 32.256-31.744h448c17.408 0 31.744 14.336 31.744 31.744v448.512c0 17.408-14.336 31.744-31.744 31.744zM448 173.312l-84.48 116.736c-6.656 6.144-16.384 6.144-23.040 0l-116.224-148.992-52.736 84.992c-6.656 6.144-16.384 6.144-23.040 0l-84.48-116.736v306.688h384v-242.688z" />
<glyph unicode="&#xe848;" d="M304.128 480c-8.704 0.512-15.872-6.656-15.872-15.36v-192c0-8.704 7.168-16.384 15.872-16.384h192c8.704 0 15.872 7.168 15.36 15.872-7.68 111.104-96.256 200.192-207.36 207.872zM432.128 192.256h-192c-8.704 0-15.872 7.68-15.872 16.384v192c0 8.704-7.68 15.872-16.384 15.36-116.224-8.192-207.872-104.96-207.872-223.232 0-123.904 100.352-224.256 224.256-224.256 118.272 0 215.040 91.648 223.232 207.872 0.512 8.704-6.656 15.872-15.36 15.872z" />
<glyph unicode="&#xe849;" d="M496.128 416h-213.504c-13.312 37.376-48.64 64-90.112 64s-77.312-26.624-90.624-64h-85.504c-9.216 0-16.384-7.168-16.384-15.872v-32.256c0-8.704 7.168-15.872 16.384-15.872h86.016c12.8-37.376 48.128-64 90.112-64s76.8 26.624 90.112 64h213.504c9.216 0 15.872 7.168 15.872 15.872v32.256c0 8.704-6.656 15.872-15.872 15.872zM496.128 96h-85.504c-13.312 37.376-48.64 64-90.112 64s-77.312-26.624-90.112-64h-214.016c-9.216 0-16.384-7.168-16.384-15.872v-32.256c0-8.704 7.168-15.872 16.384-15.872h214.016c12.8-37.376 48.128-64 90.112-64s76.8 26.624 90.112 64h85.504c9.216 0 15.872 7.168 15.872 15.872v32.256c0 8.704-6.656 15.872-15.872 15.872z" />
<glyph unicode="&#xe84a;" d="M480.256 96v96.256c0 17.408-14.336 31.744-32.256 31.744h-159.744v64h31.744c17.92 0 32.256 14.336 32.256 32.256v128c0 17.408-14.336 31.744-32.256 31.744h-128c-17.92 0-31.744-14.336-31.744-31.744v-128c0-17.92 13.824-32.256 31.744-32.256h32.256v-64h-160.256c-17.92 0-31.744-14.336-31.744-31.744v-96.256c-17.92 0-32.256-14.336-32.256-31.744v-64.512c0-17.408 14.336-31.744 32.256-31.744h64c17.408 0 31.744 14.336 31.744 31.744v64.512c0 17.408-14.336 31.744-31.744 31.744v64h128v-64c-17.92 0-32.256-14.336-32.256-31.744v-64.512c0-17.408 14.336-31.744 32.256-31.744h64c17.408 0 31.744 14.336 31.744 31.744v64.512c0 17.408-14.336 31.744-31.744 31.744v64h128v-64c-17.92 0-32.256-14.336-32.256-31.744v-64.512c0-17.408 14.336-31.744 32.256-31.744h64c17.408 0 31.744 14.336 31.744 31.744v64.512c0 17.408-14.336 31.744-31.744 31.744z" />
<glyph unicode="&#xe84b;" d="M480.256 480h-448c-17.92 0-32.256-14.336-32.256-31.744v-448.512c0-17.408 14.336-31.744 32.256-31.744h448c17.408 0 31.744 14.336 31.744 31.744v448.512c0 17.408-14.336 31.744-31.744 31.744zM352.256 303.872c0-8.704-7.168-15.872-16.384-15.872h-192c-8.704 0-15.872 7.168-15.872 15.872v32.256c0 8.704 7.168 15.872 15.872 15.872h192c9.216 0 16.384-7.168 16.384-15.872v-32.256zM320 111.872c0-8.704-7.168-15.872-15.872-15.872h-160.256c-8.704 0-15.872 7.168-15.872 15.872v32.256c0 8.704 7.168 15.872 15.872 15.872h160.256c8.704 0 15.872-7.168 15.872-15.872v-32.256zM384 208.128c0-8.704-7.168-15.872-15.872-15.872h-224.256c-8.704 0-15.872 7.168-15.872 15.872v31.744c0 9.216 7.168 16.384 15.872 16.384h224.256c8.704 0 15.872-7.168 15.872-16.384v-31.744z" />
<glyph unicode="&#xe84c;" d="M480.256 480h-448c-17.92 0-32.256-14.336-32.256-31.744v-448.512c0-17.408 14.336-31.744 32.256-31.744h448c17.408 0 31.744 14.336 31.744 31.744v448.512c0 17.408-14.336 31.744-31.744 31.744zM160.256 336.128c0 8.704 7.168 15.872 15.872 15.872h159.744c9.216 0 16.384-7.168 16.384-15.872v-32.256c0-8.704-7.168-15.872-16.384-15.872h-159.744c-8.704 0-15.872 7.168-15.872 15.872v32.256zM352.256 111.872c0-8.704-7.168-15.872-16.384-15.872h-159.744c-8.704 0-15.872 7.168-15.872 15.872v32.256c0 8.704 7.168 15.872 15.872 15.872h159.744c9.216 0 16.384-7.168 16.384-15.872v-32.256zM384 208.128c0-8.704-7.168-15.872-15.872-15.872h-224.256c-8.704 0-15.872 7.168-15.872 15.872v31.744c0 9.216 7.168 16.384 15.872 16.384h224.256c8.704 0 15.872-7.168 15.872-16.384v-31.744z" />
<glyph unicode="&#xe84d;" d="M0 448.256v-448.512c0-17.408 14.336-31.744 32.256-31.744h448c17.408 0 31.744 14.336 31.744 31.744v448.512c0 17.408-14.336 31.744-31.744 31.744h-448c-17.92 0-32.256-14.336-32.256-31.744zM160.256 336.128c0 8.704 7.168 15.872 15.872 15.872h192c8.704 0 15.872-7.168 15.872-15.872v-32.256c0-8.704-7.168-15.872-15.872-15.872h-192c-8.704 0-15.872 7.168-15.872 15.872v32.256zM192 144.128c0 8.704 7.168 15.872 15.872 15.872h160.256c8.704 0 15.872-7.168 15.872-15.872v-32.256c0-8.704-7.168-15.872-15.872-15.872h-160.256c-8.704 0-15.872 7.168-15.872 15.872v32.256zM128 239.872c0 9.216 7.168 16.384 15.872 16.384h224.256c8.704 0 15.872-7.168 15.872-16.384v-31.744c0-8.704-7.168-15.872-15.872-15.872h-224.256c-8.704 0-15.872 7.168-15.872 15.872v31.744z" />
<glyph unicode="&#xe84e;" d="M48.128 384.256h-32.256c-8.704 0-15.872-7.168-15.872-16.384v-31.744c0-8.704 7.168-15.872 15.872-15.872h32.256c8.704 0 15.872 7.168 15.872 15.872v31.744c0 9.216-7.168 16.384-15.872 16.384zM496.128 384.256h-384c-8.704 0-15.872-7.168-15.872-16.384v-31.744c0-8.704 7.168-15.872 15.872-15.872h384c8.704 0 15.872 7.168 15.872 15.872v31.744c0 9.216-7.168 16.384-15.872 16.384zM48.128 256.256h-32.256c-8.704 0-15.872-7.168-15.872-16.384v-31.744c0-8.704 7.168-15.872 15.872-15.872h32.256c8.704 0 15.872 7.168 15.872 15.872v31.744c0 9.216-7.168 16.384-15.872 16.384zM496.128 256.256h-384c-8.704 0-15.872-7.168-15.872-16.384v-31.744c0-8.704 7.168-15.872 15.872-15.872h384c8.704 0 15.872 7.168 15.872 15.872v31.744c0 9.216-7.168 16.384-15.872 16.384zM48.128 128.256h-32.256c-8.704 0-15.872-7.168-15.872-16.384v-31.744c0-8.704 7.168-15.872 15.872-15.872h32.256c8.704 0 15.872 7.168 15.872 15.872v31.744c0 9.216-7.168 16.384-15.872 16.384zM496.128 128.256h-384c-8.704 0-15.872-7.168-15.872-16.384v-31.744c0-8.704 7.168-15.872 15.872-15.872h384c8.704 0 15.872 7.168 15.872 15.872v31.744c0 9.216-7.168 16.384-15.872 16.384z" />
<glyph unicode="&#xe84f;" d="M496.128 448.256h-480.256c-8.704 0-15.872-7.168-15.872-16.384v-31.744c0-8.704 7.168-15.872 15.872-15.872h480.256c8.704 0 15.872 7.168 15.872 15.872v31.744c0 9.216-7.168 16.384-15.872 16.384zM496.128 64.256h-480.256c-8.704 0-15.872-7.168-15.872-16.384v-31.744c0-9.216 7.168-16.384 15.872-16.384h480.256c8.704 0 15.872 7.168 15.872 16.384v31.744c0 9.216-7.168 16.384-15.872 16.384zM496.128 192.256h-480.256c-8.704 0-15.872-7.168-15.872-16.384v-31.744c0-8.704 7.168-15.872 15.872-15.872h480.256c8.704 0 15.872 7.168 15.872 15.872v31.744c0 9.216-7.168 16.384-15.872 16.384zM496.128 320.256h-480.256c-8.704 0-15.872-7.168-15.872-16.384v-31.744c0-8.704 7.168-15.872 15.872-15.872h480.256c8.704 0 15.872 7.168 15.872 15.872v31.744c0 9.216-7.168 16.384-15.872 16.384z" />
<glyph unicode="&#xe850;" d="M496.128 448.256h-480.256c-8.704 0-15.872-7.168-15.872-16.384v-31.744c0-8.704 7.168-15.872 15.872-15.872h480.256c8.704 0 15.872 7.168 15.872 15.872v31.744c0 9.216-7.168 16.384-15.872 16.384zM496.128 320.256h-480.256c-8.704 0-15.872-7.168-15.872-16.384v-31.744c0-8.704 7.168-15.872 15.872-15.872h480.256c8.704 0 15.872 7.168 15.872 15.872v31.744c0 9.216-7.168 16.384-15.872 16.384zM496.128 192.256h-480.256c-8.704 0-15.872-7.168-15.872-16.384v-31.744c0-8.704 7.168-15.872 15.872-15.872h480.256c8.704 0 15.872 7.168 15.872 15.872v31.744c0 9.216-7.168 16.384-15.872 16.384zM271.872 64.256h-256c-8.704 0-15.872-7.168-15.872-16.384v-31.744c0-9.216 7.168-16.384 15.872-16.384h256c9.216 0 16.384 7.168 16.384 16.384v31.744c0 9.216-7.168 16.384-16.384 16.384z" />
<glyph unicode="&#xe851;" d="M512 431.872c0 9.216-7.168 16.384-15.872 16.384h-480.256c-8.704 0-15.872-7.168-15.872-16.384v-31.744c0-8.704 7.168-15.872 15.872-15.872h480.256c8.704 0 15.872 7.168 15.872 15.872v31.744zM448 175.872c0 9.216-7.168 16.384-15.872 16.384h-416.256c-8.704 0-15.872-7.168-15.872-16.384v-31.744c0-8.704 7.168-15.872 15.872-15.872h416.256c8.704 0 15.872 7.168 15.872 15.872v31.744zM320 303.872c0 9.216-7.168 16.384-15.872 16.384h-288.256c-8.704 0-15.872-7.168-15.872-16.384v-31.744c0-8.704 7.168-15.872 15.872-15.872h288.256c8.704 0 15.872 7.168 15.872 15.872v31.744zM384 47.872c0 9.216-7.168 16.384-15.872 16.384h-352.256c-8.704 0-15.872-7.168-15.872-16.384v-31.744c0-9.216 7.168-16.384 15.872-16.384h352.256c8.704 0 15.872 7.168 15.872 16.384v31.744z" />
<glyph unicode="&#xe852;" d="M496.128 448.256h-480.256c-8.704 0-15.872-7.168-15.872-16.384v-31.744c0-8.704 7.168-15.872 15.872-15.872h480.256c8.704 0 15.872 7.168 15.872 15.872v31.744c0 9.216-7.168 16.384-15.872 16.384zM496.128 192.256h-480.256c-8.704 0-15.872-7.168-15.872-16.384v-31.744c0-8.704 7.168-15.872 15.872-15.872h480.256c8.704 0 15.872 7.168 15.872 15.872v31.744c0 9.216-7.168 16.384-15.872 16.384zM432.128 256.256c8.704 0 15.872 7.168 15.872 15.872v31.744c0 9.216-7.168 16.384-15.872 16.384h-352.256c-8.704 0-15.872-7.168-15.872-16.384v-31.744c0-8.704 7.168-15.872 15.872-15.872h352.256zM432.128 64.256h-352.256c-8.704 0-15.872-7.168-15.872-16.384v-31.744c0-9.216 7.168-16.384 15.872-16.384h352.256c8.704 0 15.872 7.168 15.872 16.384v31.744c0 9.216-7.168 16.384-15.872 16.384z" />
<glyph unicode="&#xe853;" d="M496.128 448.256h-480.256c-8.704 0-15.872-7.168-15.872-16.384v-31.744c0-8.704 7.168-15.872 15.872-15.872h480.256c8.704 0 15.872 7.168 15.872 15.872v31.744c0 9.216-7.168 16.384-15.872 16.384zM496.128 192.256h-416.256c-8.704 0-15.872-7.168-15.872-16.384v-31.744c0-8.704 7.168-15.872 15.872-15.872h416.256c8.704 0 15.872 7.168 15.872 15.872v31.744c0 9.216-7.168 16.384-15.872 16.384zM496.128 320.256h-288.256c-8.704 0-15.872-7.168-15.872-16.384v-31.744c0-8.704 7.168-15.872 15.872-15.872h288.256c8.704 0 15.872 7.168 15.872 15.872v31.744c0 9.216-7.168 16.384-15.872 16.384zM496.128 64.256h-352.256c-8.704 0-15.872-7.168-15.872-16.384v-31.744c0-9.216 7.168-16.384 15.872-16.384h352.256c8.704 0 15.872 7.168 15.872 16.384v31.744c0 9.216-7.168 16.384-15.872 16.384z" />
<glyph unicode="&#xe854;" d="M496.128 448.256h-480.256c-8.704 0-15.872-7.168-15.872-16.384v-31.744c0-8.704 7.168-15.872 15.872-15.872h480.256c8.704 0 15.872 7.168 15.872 15.872v31.744c0 9.216-7.168 16.384-15.872 16.384zM496.128 320.256h-480.256c-8.704 0-15.872-7.168-15.872-16.384v-31.744c0-8.704 7.168-15.872 15.872-15.872h480.256c8.704 0 15.872 7.168 15.872 15.872v31.744c0 9.216-7.168 16.384-15.872 16.384zM496.128 192.256h-480.256c-8.704 0-15.872-7.168-15.872-16.384v-31.744c0-8.704 7.168-15.872 15.872-15.872h480.256c8.704 0 15.872 7.168 15.872 15.872v31.744c0 9.216-7.168 16.384-15.872 16.384zM496.128 64.256h-256c-8.704 0-15.872-7.168-15.872-16.384v-31.744c0-9.216 7.168-16.384 15.872-16.384h256c8.704 0 15.872 7.168 15.872 16.384v31.744c0 9.216-7.168 16.384-15.872 16.384z" />
<glyph unicode="&#xe855;" d="M112.128 480h-79.872c-17.92 0-32.256-14.336-32.256-31.744v-80.384c0-8.704 7.168-15.872 15.872-15.872h32.256c8.704 0 15.872 7.168 15.872 15.872v48.128h48.128c8.704 0 15.872 7.168 15.872 15.872v32.256c0 8.704-7.168 15.872-15.872 15.872zM112.128 32h-48.128v48.128c0 8.704-7.168 15.872-15.872 15.872h-32.256c-8.704 0-15.872-7.168-15.872-15.872v-80.384c0-17.408 14.336-31.744 32.256-31.744h79.872c8.704 0 15.872 7.168 15.872 15.872v32.256c0 8.704-7.168 15.872-15.872 15.872zM496.128 96h-32.256c-8.704 0-15.872-7.168-15.872-15.872v-48.128h-48.128c-8.704 0-15.872-7.168-15.872-15.872v-32.256c0-8.704 7.168-15.872 15.872-15.872h80.384c17.408 0 31.744 14.336 31.744 31.744v80.384c0 8.704-7.168 15.872-15.872 15.872zM480.256 480h-80.384c-8.704 0-15.872-7.168-15.872-15.872v-32.256c0-8.704 7.168-15.872 15.872-15.872h48.128v-48.128c0-8.704 7.168-15.872 15.872-15.872h32.256c8.704 0 15.872 7.168 15.872 15.872v80.384c0 17.408-14.336 31.744-31.744 31.744zM207.872-32h96.256c8.704 0 15.872 7.168 15.872 15.872v32.256c0 8.704-7.168 15.872-15.872 15.872h-96.256c-8.704 0-15.872-7.168-15.872-15.872v-32.256c0-8.704 7.168-15.872 15.872-15.872zM207.872 416h96.256c8.704 0 15.872 7.168 15.872 15.872v32.256c0 8.704-7.168 15.872-15.872 15.872h-96.256c-8.704 0-15.872-7.168-15.872-15.872v-32.256c0-8.704 7.168-15.872 15.872-15.872zM463.872 160h32.256c8.704 0 15.872 7.168 15.872 15.872v96.256c0 8.704-7.168 15.872-15.872 15.872h-32.256c-8.704 0-15.872-7.168-15.872-15.872v-96.256c0-8.704 7.168-15.872 15.872-15.872zM48.128 288h-32.256c-8.704 0-15.872-7.168-15.872-15.872v-96.256c0-8.704 7.168-15.872 15.872-15.872h32.256c8.704 0 15.872 7.168 15.872 15.872v96.256c0 8.704-7.168 15.872-15.872 15.872z" />
<glyph unicode="&#xe856;" d="M480.256 480h-448c-17.92 0-32.256-14.336-32.256-31.744v-448.512c0-17.408 14.336-31.744 32.256-31.744h111.616c9.216 0 16.384 7.168 16.384 15.872v32.256c0 8.704-7.168 15.872-16.384 15.872h-79.872v384h384v-384h-79.872c-8.704 0-15.872-7.168-15.872-15.872v-32.256c0-8.704 7.168-15.872 15.872-15.872h112.128c17.408 0 31.744 14.336 31.744 31.744v448.512c0 17.408-14.336 31.744-31.744 31.744zM266.24 282.368c-5.632 7.68-14.848 7.68-20.48 0l-82.944-106.496c-5.632-7.168-2.56-15.872 7.168-15.872h54.272v-176.128c0-8.704 7.168-15.872 15.872-15.872h31.744c9.216 0 16.384 7.168 16.384 15.872v176.128h53.76c9.728 0 12.8 8.704 7.168 15.872l-82.944 106.496z" />
<glyph unicode="&#xe857;" d="M480.256 480h-112.128c-8.704 0-15.872-7.168-15.872-15.872v-32.256c0-8.704 7.168-15.872 15.872-15.872h79.872v-384h-384v384h79.872c9.216 0 16.384 7.168 16.384 15.872v32.256c0 8.704-7.168 15.872-16.384 15.872h-111.616c-17.92 0-32.256-14.336-32.256-31.744v-448.512c0-17.408 14.336-31.744 32.256-31.744h448c17.408 0 31.744 14.336 31.744 31.744v448.512c0 17.408-14.336 31.744-31.744 31.744zM245.76 165.632c5.632-7.168 14.848-7.68 20.48 0l82.944 106.496c5.632 7.68 2.56 15.872-7.168 15.872h-53.76v176.128c0 8.704-7.168 15.872-16.384 15.872h-31.744c-8.704 0-15.872-7.168-15.872-15.872v-176.128h-54.272c-9.728 0-12.8-8.704-7.168-15.872l82.944-106.496z" />
<glyph unicode="&#xe858;" d="M480.256 480h-448c-17.92 0-32.256-14.336-32.256-31.744v-448.512c0-17.408 14.336-31.744 32.256-31.744h448c17.408 0 31.744 14.336 31.744 31.744v448.512c0 17.408-14.336 31.744-31.744 31.744zM192 111.872c0-8.704-7.168-15.872-15.872-15.872h-32.256c-8.704 0-15.872 7.168-15.872 15.872v224.256c0 8.704 7.168 15.872 15.872 15.872h32.256c8.704 0 15.872-7.168 15.872-15.872v-224.256zM378.368 146.688c6.144-6.656 6.144-16.896 0-23.040l-21.504-23.040c-6.144-6.144-15.872-6.144-22.016 0l-106.496 111.616c-5.632 6.144-5.632 16.384 0 23.040l107.52 112.128c6.144 6.144 15.872 6.144 22.016 0l21.504-23.040c6.144-6.144 6.144-16.384 0-23.040l-74.24-77.824 73.216-76.8z" />
<glyph unicode="&#xe859;" d="M480.256 480h-448c-17.92 0-32.256-14.336-32.256-31.744v-448.512c0-17.408 14.336-31.744 32.256-31.744h448c17.408 0 31.744 14.336 31.744 31.744v448.512c0 17.408-14.336 31.744-31.744 31.744zM250.368 123.648l-21.504-23.040c-6.144-6.144-15.872-6.144-22.016 0l-106.496 111.616c-5.632 6.144-5.632 16.384 0 23.040l107.52 112.128c6.144 6.144 15.872 6.144 22.016 0l21.504-23.040c6.144-6.144 6.144-16.384 0-23.040l-74.24-77.824 73.216-76.8c6.144-6.656 6.144-16.896 0-23.040zM410.624 146.688c6.144-6.656 6.144-16.896 0-23.040l-22.016-23.040c-6.144-6.144-15.872-6.144-22.016 0l-105.984 111.616c-6.144 6.144-6.144 16.384 0 23.040l107.008 112.128c6.144 6.144 15.872 6.144 22.016 0l22.016-23.040c6.144-6.144 6.144-16.384 0-23.040l-74.24-77.824 73.216-76.8z" />
<glyph unicode="&#xe85a;" d="M480.256 480h-448c-17.92 0-32.256-14.336-32.256-31.744v-448.512c0-17.408 14.336-31.744 32.256-31.744h448c17.408 0 31.744 14.336 31.744 31.744v448.512c0 17.408-14.336 31.744-31.744 31.744zM352.256 144.128c0-8.704-7.168-15.872-16.384-15.872h-159.744c-8.704 0-15.872 7.168-15.872 15.872v159.744c0 9.216 7.168 16.384 15.872 16.384h159.744c9.216 0 16.384-7.168 16.384-16.384v-159.744z" />
<glyph unicode="&#xe85b;" d="M480.256 480h-448c-17.92 0-32.256-14.336-32.256-31.744v-448.512c0-17.408 14.336-31.744 32.256-31.744h448c17.408 0 31.744 14.336 31.744 31.744v448.512c0 17.408-14.336 31.744-31.744 31.744zM224.256 111.872c0-8.704-7.168-15.872-16.384-15.872h-31.744c-8.704 0-15.872 7.168-15.872 15.872v224.256c0 8.704 7.168 15.872 15.872 15.872h31.744c9.216 0 16.384-7.168 16.384-15.872v-224.256zM352.256 111.872c0-8.704-7.168-15.872-16.384-15.872h-31.744c-8.704 0-15.872 7.168-15.872 15.872v224.256c0 8.704 7.168 15.872 15.872 15.872h31.744c9.216 0 16.384-7.168 16.384-15.872v-224.256z" />
<glyph unicode="&#xe85c;" d="M480.256 480h-448c-17.92 0-32.256-14.336-32.256-31.744v-448.512c0-17.408 14.336-31.744 32.256-31.744h448c17.408 0 31.744 14.336 31.744 31.744v448.512c0 17.408-14.336 31.744-31.744 31.744zM160.256 109.824v228.352c0 12.8 18.432 17.408 28.672 10.752l185.856-113.152c10.24-6.656 12.8-16.896 2.56-23.552l-189.44-113.152c-10.24-6.656-27.648-1.536-27.648 10.752z" />
<glyph unicode="&#xe85d;" d="M480.256 480h-448c-17.92 0-32.256-14.336-32.256-31.744v-448.512c0-17.408 14.336-31.744 32.256-31.744h448c17.408 0 31.744 14.336 31.744 31.744v448.512c0 17.408-14.336 31.744-31.744 31.744zM144.384 100.608c-6.144-6.144-15.872-6.144-22.016 0l-22.016 23.040c-5.632 6.144-5.632 16.384 0 23.040l74.752 77.824-73.728 76.8c-6.144 6.656-6.144 16.896 0 23.040l22.016 23.040c6.144 6.144 15.872 6.144 22.016 0l105.984-111.616c6.144-6.144 6.144-16.384 0-22.528l-107.008-112.64zM411.648 212.736l-107.52-112.128c-5.632-6.144-15.872-6.144-21.504 0l-22.016 23.040c-6.144 6.144-6.144 16.384 0 23.040l74.24 77.824-73.216 76.8c-6.144 6.656-6.144 16.896 0 23.040l21.504 23.040c6.144 6.144 15.872 6.144 22.016 0l106.496-111.616c6.144-6.144 6.144-16.384 0-23.040z" />
<glyph unicode="&#xe85e;" d="M480.256 480h-448c-17.92 0-32.256-14.336-32.256-31.744v-448.512c0-17.408 14.336-31.744 32.256-31.744h448c17.408 0 31.744 14.336 31.744 31.744v448.512c0 17.408-14.336 31.744-31.744 31.744zM283.648 213.248l-107.52-112.64c-5.632-6.144-15.872-6.144-21.504 0l-22.016 23.040c-6.144 6.144-6.144 16.384 0 23.040l74.24 77.824-73.216 76.8c-6.144 6.656-6.144 16.896 0 23.040l21.504 23.040c6.144 6.144 15.872 6.144 22.016 0l106.496-111.616c5.632-6.144 5.632-16.384 0-22.528zM384 111.872c0-8.704-7.168-15.872-15.872-15.872h-32.256c-8.704 0-15.872 7.168-15.872 15.872v224.256c0 8.704 7.168 15.872 15.872 15.872h32.256c8.704 0 15.872-7.168 15.872-15.872v-224.256z" />
<glyph unicode="&#xe85f;" d="M224.256 34.56c-84.48 16.384-160.256 94.72-160.256 188.928 0 47.616 17.92 92.16 48.128 126.464l0.512 0.512 54.784-54.784c13.824-13.312 24.576-8.704 24.576 10.24v156.672c0 9.728-7.68 17.408-17.408 17.408h-156.672c-18.944 0-23.552-10.752-10.24-24.576l59.904-59.392-1.024-0.512c-41.984-46.592-66.56-107.008-66.56-172.032 0-129.536 107.52-236.544 224.256-253.44 17.408-2.56 31.744 11.776 31.744 29.184s-14.336 32.256-31.744 35.328zM445.44 51.456l1.024 1.024c41.984 46.592 65.536 107.008 65.536 171.008 0 129.536-107.52 236.544-224.256 253.44-17.408 2.56-31.744-11.776-31.744-29.184s14.336-31.744 31.744-35.328c84.48-16.384 160.256-94.72 160.256-188.928 0-47.104-16.896-91.136-47.104-125.952l-1.024-0.512-55.296 55.296c-13.312 13.312-24.576 8.704-24.576-10.24v-156.672c0-9.728 7.68-17.408 17.408-17.408h156.672c18.944 0 23.552 10.752 10.24 24.576l-58.88 58.88z" />
<glyph unicode="&#xe860;" d="M487.424 440.064l-43.52-43.52c-2.048 2.56-4.608 5.632-7.168 8.192-47.616 47.616-112.64 75.264-180.736 75.264-141.312 0-256-114.688-256-256s114.688-256 256-256c114.176 0 212.992 73.728 245.248 182.784 5.12 16.896-4.608 34.816-21.504 39.936-16.896 5.12-34.816-4.608-39.424-21.504-24.576-81.92-98.816-137.216-184.32-137.216-105.984 0-192 86.016-192 192s86.016 192 192 192c51.2 0 99.84-20.992 135.68-56.32l6.656-8.704-70.656-70.144c-13.312-13.824-8.704-24.576 10.24-24.576h156.672c9.728 0 17.408 7.68 17.408 17.408v156.16c0 19.456-10.752 24.064-24.576 10.24z" />
<glyph unicode="&#xe861;" d="M105.472 329.472l-50.688-50.688c-12.8-12.8-8.192-22.528 9.216-22.528h143.872c9.216 0 16.384 7.168 16.384 15.872v143.872c0 17.92-10.24 22.016-23.040 9.216l-50.688-50.688-100.352 100.864c-6.656 6.144-16.384 6.144-23.040 0l-22.528-22.528c-6.144-6.656-6.144-16.384 0-23.040l100.864-100.352zM304.128 256.256h143.872c17.92 0 22.016 9.728 9.216 22.528l-50.688 50.688 100.864 100.352c6.144 6.656 6.144 16.384 0 23.040l-22.528 22.528c-6.656 6.144-16.384 6.144-23.040 0l-100.352-100.864-50.688 50.688c-12.8 12.8-22.528 8.704-22.528-9.216v-143.872c0-8.704 7.168-15.872 15.872-15.872zM310.784 22.784l50.688 50.688 100.352-100.864c6.656-6.144 16.384-6.144 23.040 0l22.528 22.528c6.144 6.656 6.144 16.384 0 23.040l-100.864 100.352 50.688 50.688c12.8 12.8 8.704 23.040-9.216 23.040h-143.872c-8.704 0-15.872-7.168-15.872-16.384v-143.872c0-17.92 9.728-22.016 22.528-9.216zM27.136-27.392c6.656-6.144 16.384-6.144 23.040 0l100.352 100.864 50.688-50.688c12.8-12.8 23.040-8.704 23.040 9.216v143.872c0 9.216-7.168 16.384-16.384 16.384h-143.872c-17.92 0-22.016-10.24-9.216-23.040l50.688-50.688-100.864-100.352c-6.144-6.656-6.144-16.384 0-23.040l22.528-22.528z" />
<glyph unicode="&#xe862;" d="M118.784 406.784l50.688 50.688c12.288 12.288 8.192 22.528-9.216 22.528h-144.384c-8.704 0-15.872-7.168-15.872-15.872v-143.872c0-17.92 10.24-22.016 22.528-9.728l50.688 50.688 100.864-100.352c6.144-6.144 16.384-6.144 22.528 0l22.528 22.528c6.656 6.144 6.656 16.384 0 22.528l-100.352 100.864zM496.128 480h-143.872c-17.92 0-22.016-10.24-9.728-22.528l50.688-50.688-100.352-100.864c-6.656-6.144-6.656-16.384 0-22.528l22.528-22.528c6.144-6.144 16.384-6.144 22.528 0l100.864 100.352 50.688-50.688c12.288-12.288 22.528-8.192 22.528 9.728v143.872c0 8.704-7.168 15.872-15.872 15.872zM489.472 137.472l-50.688-50.688-100.864 100.352c-6.144 6.656-16.384 6.656-22.528 0l-22.528-22.528c-6.656-6.144-6.656-16.384 0-22.528l100.352-100.864-50.688-50.688c-12.288-12.288-8.192-22.528 9.728-22.528h143.872c8.704 0 15.872 7.168 15.872 15.872v144.384c0 17.408-10.24 21.504-22.528 9.216zM196.608 187.136c-6.144 6.656-16.384 6.656-22.528 0l-100.864-100.352-50.688 50.688c-12.288 12.288-22.528 8.192-22.528-9.216v-144.384c0-8.704 7.168-15.872 15.872-15.872h144.384c17.408 0 21.504 10.24 9.216 22.528l-50.688 50.688 100.352 100.864c6.656 6.144 6.656 16.384 0 22.528l-22.528 22.528z" />
<glyph unicode="&#xe863;" d="M480.256 480h-448c-17.92 0-32.256-14.336-32.256-31.744v-448.512c0-17.408 14.336-31.744 32.256-31.744h448c17.408 0 31.744 14.336 31.744 31.744v448.512c0 17.408-14.336 31.744-31.744 31.744zM250.88 170.752l-62.464-62.464 31.744-32.256c6.656-6.656 4.608-11.776-5.12-11.776h-101.888c-9.728 0-16.896 7.168-16.896 16.896v101.888c0 9.728 5.12 11.776 11.776 5.12l32.256-31.744 62.464 62.464c6.656 6.656 17.408 6.656 24.064 0l24.064-24.064c6.656-6.656 6.656-17.408 0-24.064zM416.256 264.96c0-9.728-5.632-11.776-12.288-5.12l-32.256 31.744-62.464-62.464c-6.656-6.656-17.408-6.656-24.064 0l-24.064 24.064c-6.656 6.656-6.656 17.408 0 24.064l62.464 62.464-31.744 32.256c-6.656 6.656-4.608 12.288 5.12 12.288h101.888c9.728 0 17.408-7.68 17.408-17.408v-101.888z" />
<glyph unicode="&#xe864;" d="M432.128 416h-143.872c-17.92 0-22.016-10.24-9.728-22.528l50.688-50.688-192-192-50.688 50.688c-12.288 12.288-22.528 8.192-22.528-9.216v-144.384c0-8.704 7.168-15.872 15.872-15.872h143.872c17.92 0 22.016 10.24 9.728 22.528l-50.688 50.688 192 192 50.688-50.688c12.288-12.288 22.528-8.192 22.528 9.728v143.872c0 8.704-7.168 15.872-15.872 15.872z" />
<glyph unicode="&#xe865;" d="M306.176 32h-100.352c-9.216 0-13.824 7.68-13.824 16.896v143.36h-86.528c-9.216 0-12.288 7.68-6.656 14.848l147.456 203.264c5.632 7.168 13.824 7.68 19.456 0.512l147.456-203.776c5.632-7.68 2.56-14.848-6.656-14.848h-86.528v-143.36c0-9.216-4.608-16.896-13.824-16.896z" />
<glyph unicode="&#xe866;" d="M205.824 416h100.352c9.216 0 13.824-7.68 13.824-16.896v-142.848h86.528c9.216 0 12.288-8.192 6.656-15.36l-147.456-203.264c-5.12-7.168-13.824-7.68-19.456 0l-147.456 203.264c-5.632 7.68-2.56 15.36 6.656 15.36h86.528v142.848c0 9.216 4.608 16.896 13.824 16.896z" />
<glyph unicode="&#xe867;" d="M448 274.176v-100.352c0-9.216-8.192-13.824-16.896-13.824h-142.848v-86.528c0-9.216-8.192-12.288-15.36-6.656l-203.264 147.456c-7.168 5.632-7.68 14.336-0.512 19.456l203.776 147.456c7.168 5.632 15.36 2.56 15.36-6.656v-86.528h142.848c8.704 0 16.896-4.608 16.896-13.824z" />
<glyph unicode="&#xe868;" d="M64 173.824v100.352c0 9.216 8.192 13.824 16.896 13.824h143.36v86.528c0 9.216 7.68 12.288 14.848 6.656l203.264-147.456c7.168-5.12 7.68-13.824 0.512-19.456l-203.776-147.456c-7.168-5.632-14.848-2.56-14.848 6.656v86.528h-143.36c-8.704 0-16.896 4.608-16.896 13.824z" />
<glyph unicode="&#xe869;" d="M323.072-32h-134.144c-18.432 0-28.672 13.824-28.672 31.232v224.768h-110.080c-18.432 0-23.552 9.728-11.776 23.552l196.096 222.72c11.776 13.312 31.232 12.8 43.008-0.512l196.096-222.208c11.776-13.312 6.656-23.552-11.776-23.552h-109.568v-224.768c0-17.408-10.752-31.232-29.184-31.232z" />
<glyph unicode="&#xe86a;" d="M399.872 256.256h-111.616v111.616c0 9.216-7.168 16.384-16.384 16.384h-31.744c-8.704 0-15.872-7.168-15.872-16.384v-111.616h-112.128c-8.704 0-15.872-7.168-15.872-16.384v-31.744c0-8.704 7.168-15.872 15.872-15.872h112.128v-112.128c0-8.704 7.168-15.872 15.872-15.872h31.744c9.216 0 16.384 7.168 16.384 15.872v112.128h111.616c9.216 0 16.384 7.168 16.384 15.872v31.744c0 9.216-7.168 16.384-16.384 16.384z" />
<glyph unicode="&#xe86b;" d="M432.128 192.256h-352.256c-8.704 0-15.872 7.168-15.872 15.872v31.744c0 9.216 7.168 16.384 15.872 16.384h352.256c8.704 0 15.872-7.168 15.872-16.384v-31.744c0-8.704-7.168-15.872-15.872-15.872z" />
<glyph unicode="&#xe86c;" d="M212.48 100.608l-111.616 109.056c-6.656 6.144-6.656 15.872 0 22.016l22.528 22.016c6.144 6.144 16.384 6.144 22.528 0l78.336-76.8 173.568 170.496c6.656 6.144 16.384 6.144 23.040 0l22.528-22.016c6.144-5.632 6.144-15.872 0-21.504l-207.872-203.264c-6.656-6.144-16.384-6.144-23.040 0z" />
<glyph unicode="&#xe86d;" d="M381.44 143.616l-78.848 79.36 78.848 79.36c6.656 6.144 6.656 16.384 0 22.528l-22.528 22.528c-6.144 6.144-16.384 6.144-22.528 0l-79.36-79.36-78.848 79.36c-6.656 6.144-16.384 6.144-23.040 0l-22.528-22.528c-6.144-6.656-6.144-16.384 0-23.040l79.36-78.848-79.36-79.36c-6.144-6.144-6.144-16.384 0-22.528l22.528-22.528c6.656-6.144 16.384-6.144 23.040 0l78.848 78.848 79.36-78.848c6.144-6.144 16.384-6.144 22.528 0l22.528 22.528c6.656 6.144 6.656 16.384 0 22.528z" />
<glyph unicode="&#xe86e;" d="M370.176 128.256h-228.352c-12.288 0-17.408 15.872-10.752 24.576l113.152 159.232c6.656 8.704 16.896 11.264 23.552 2.56l113.152-162.816c6.656-8.704 1.536-23.552-10.752-23.552z" />
<glyph unicode="&#xe86f;" d="M141.824 320.256h228.352c12.288 0 17.408-16.384 11.264-25.088l-113.664-159.232c-6.656-8.704-16.896-11.264-23.552-2.048l-113.152 162.304c-6.656 8.704-1.536 24.064 10.752 24.064z" />
<glyph unicode="&#xe870;" d="M352.256 338.176v-228.352c0-12.8-16.384-17.408-25.088-11.264l-159.232 113.664c-8.704 6.656-11.264 16.896-2.048 23.552l162.304 113.152c8.704 6.656 24.064 1.536 24.064-10.752z" />
<glyph unicode="&#xe871;" d="M160.256 109.824v228.352c0 12.8 15.872 17.408 24.576 10.752l159.232-113.152c8.704-6.656 11.264-16.896 2.56-23.552l-162.816-113.152c-8.704-6.656-23.552-1.536-23.552 10.752z" />
<glyph unicode="&#xe872;" d="M100.864 177.408c-6.656-6.144-6.656-15.872 0-22.016l23.040-22.016c6.144-6.144 16.384-6.144 22.528 0l109.056 105.472 110.080-106.496c6.144-5.632 16.384-5.632 23.040 0l22.528 22.016c6.656 6.144 6.656 15.872 0 22.016l-143.872 139.264c-6.656 6.144-16.896 6.144-23.040 0l-143.36-138.24z" />
<glyph unicode="&#xe873;" d="M411.136 270.592c6.656 6.144 6.656 15.872 0 22.016l-23.040 22.016c-6.144 6.144-16.384 6.144-22.528 0l-109.056-105.472-110.080 106.496c-6.144 5.632-16.384 5.632-22.528 0l-23.040-22.016c-6.656-6.144-6.656-15.872 0-22.016l144.384-139.264c6.144-5.632 16.384-5.632 22.528 0l143.36 138.24z" />
<glyph unicode="&#xe874;" d="M302.592 68.864c6.144-6.656 15.872-6.656 22.016 0l22.016 23.040c6.144 6.144 6.144 16.384 0 22.528l-105.472 109.056 106.496 110.080c5.632 6.144 5.632 16.384 0 23.040l-22.016 22.528c-6.144 6.656-15.872 6.656-22.016 0l-139.264-143.872c-5.632-6.656-5.632-16.896 0-23.040l138.24-143.36z" />
<glyph unicode="&#xe875;" d="M209.408 379.136c-6.144 6.656-15.872 6.656-22.016 0l-22.016-23.040c-6.144-6.144-6.144-16.384 0-22.528l105.472-109.056-106.496-110.080c-5.632-6.144-5.632-16.384 0-22.528l22.016-23.040c6.144-6.656 15.872-6.656 22.016 0l139.264 143.872c6.144 6.656 6.144 16.896 0 23.040l-138.24 143.36z" />
<glyph unicode="&#xe876;" d="M256 480c-141.312 0-256-114.688-256-256s114.688-256 256-256 256 114.688 256 256-114.688 256-256 256zM348.16 192.256h-59.904v-60.416c0-16.896-15.36-30.72-32.256-30.72s-31.744 13.824-31.744 30.72v60.416h-60.416c-16.896 0-30.72 14.848-30.72 31.744s13.824 32.256 30.72 32.256h60.416v59.904c0 16.896 14.848 30.72 31.744 30.72 16.896 0 32.256-13.824 32.256-30.72v-59.904h59.904c17.408 0 30.72-15.36 30.72-32.256s-13.312-31.744-30.72-31.744z" />
<glyph unicode="&#xe877;" d="M256 480c-141.312 0-256-114.688-256-256s114.688-256 256-256 256 114.688 256 256-114.688 256-256 256zM348.16 192.256h-184.32c-16.896 0-30.72 14.848-30.72 31.744s13.824 32.256 30.72 32.256h184.32c17.408 0 30.72-15.36 30.72-32.256s-13.312-31.744-30.72-31.744z" />
<glyph unicode="&#xe878;" d="M256 480c-141.312 0-256-114.688-256-256s114.688-256 256-256 256 114.688 256 256-114.688 256-256 256zM375.296 267.52l-130.048-129.536c-11.776-11.776-31.232-11.776-43.52 0l-64.512 65.024c-12.288 11.776-12.288 31.232 0 43.008 11.776 12.288 31.232 12.288 43.008 0l43.52-43.008 108.032 108.032c11.776 11.776 31.232 11.776 43.52 0s11.776-31.232 0-43.52z" />
<glyph unicode="&#xe879;" d="M256 480c-141.312 0-256-114.688-256-256s114.688-256 256-256 256 114.688 256 256-114.688 256-256 256zM343.040 180.48c12.288-11.776 12.288-31.232 0-43.52-11.776-11.776-31.232-11.776-43.52 0l-43.52 43.52-43.52-43.52c-11.776-11.776-31.232-11.776-43.52 0-11.776 12.288-11.776 31.744 0 43.52l43.52 43.52-43.52 43.52c-11.776 11.776-11.776 31.232 0 43.52 12.288 11.776 31.744 11.776 43.52 0l43.52-43.52 43.52 43.52c11.776 11.776 31.232 11.776 43.52 0 11.776-12.288 11.776-31.744 0-43.52l-43.52-43.52 43.52-43.52z" />
<glyph unicode="&#xe87a;" d="M256 480c-141.312 0-256-114.688-256-256s114.688-256 256-256 256 114.688 256 256-114.688 256-256 256zM341.504 160h-171.008c-9.728 0-13.312 6.656-8.192 14.336l84.992 139.776c4.608 7.68 12.8 7.68 17.408 0l84.992-139.776c5.12-7.68 1.536-14.336-8.192-14.336z" />
<glyph unicode="&#xe87b;" d="M256 480c-141.312 0-256-114.688-256-256s114.688-256 256-256 256 114.688 256 256-114.688 256-256 256zM349.696 273.664l-84.992-139.776c-4.608-7.68-12.8-7.68-17.408 0l-84.992 139.776c-5.12 7.68-1.536 14.336 8.192 14.336h171.008c9.728 0 13.312-6.656 8.192-14.336z" />
<glyph unicode="&#xe87c;" d="M256 480c-141.312 0-256-114.688-256-256s114.688-256 256-256 256 114.688 256 256-114.688 256-256 256zM320 138.496c0-9.728-6.656-13.312-14.336-8.192l-139.776 84.992c-7.68 4.608-7.68 12.8 0 17.408l139.776 84.992c7.68 5.12 14.336 1.536 14.336-8.192v-171.008z" />
<glyph unicode="&#xe87d;" d="M256 480c-141.312 0-256-114.688-256-256s114.688-256 256-256 256 114.688 256 256-114.688 256-256 256zM346.112 215.296l-139.776-84.992c-7.68-5.12-14.336-1.536-14.336 8.192v171.008c0 9.728 6.656 13.312 14.336 8.192l139.776-84.992c7.68-4.608 7.68-12.8 0-17.408z" />
<glyph unicode="&#xe87e;" d="M256 480c-141.312 0-256-114.688-256-256s114.688-256 256-256 256 114.688 256 256-114.688 256-256 256zM379.392 186.624l-23.040-22.016c-6.144-6.144-16.384-6.144-23.040 0l-77.824 74.24-76.8-73.216c-6.144-6.144-16.896-6.144-23.040 0l-23.040 21.504c-6.144 6.144-6.144 15.872 0 22.016l111.616 106.496c6.144 6.144 16.384 6.144 23.040 0l112.128-107.52c6.144-5.632 6.144-15.872 0-21.504z" />
<glyph unicode="&#xe87f;" d="M256 480c-141.312 0-256-114.688-256-256s114.688-256 256-256 256 114.688 256 256-114.688 256-256 256zM379.392 238.848l-111.616-106.496c-6.144-5.632-16.384-5.632-23.040 0l-112.128 107.52c-6.144 5.632-6.144 15.872 0 21.504l23.040 22.016c6.144 6.144 16.384 6.144 23.040 0l77.824-74.24 76.8 73.216c6.656 6.144 16.896 6.144 23.040 0l23.040-21.504c6.144-6.144 6.144-15.872 0-22.016z" />
<glyph unicode="&#xe880;" d="M256 480c-141.312 0-256-114.688-256-256s114.688-256 256-256 256 114.688 256 256-114.688 256-256 256zM314.368 146.688c6.144-6.144 6.144-16.896 0-23.040l-21.504-23.040c-6.144-6.144-15.872-6.144-22.016 0l-106.496 111.616c-5.632 6.144-5.632 16.384 0 23.040l107.52 112.128c6.144 6.144 15.872 6.144 21.504 0l22.016-23.040c6.144-6.144 6.144-16.384 0-23.040l-74.24-77.824 73.216-76.8z" />
<glyph unicode="&#xe881;" d="M256 480c-141.312 0-256-114.688-256-256s114.688-256 256-256 256 114.688 256 256-114.688 256-256 256zM347.648 212.736l-107.52-112.128c-5.632-6.144-15.872-6.144-21.504 0l-22.016 23.040c-6.144 6.144-6.144 16.384 0 23.040l74.24 77.824-73.216 76.8c-6.144 6.656-6.144 16.896 0 23.040l21.504 23.040c6.144 6.144 15.872 6.144 22.016 0l106.496-111.616c5.632-6.144 5.632-16.384 0-23.040z" />
<glyph unicode="&#xe882;" d="M480.256 480h-448c-17.92 0-32.256-14.336-32.256-31.744v-448.512c0-17.408 14.336-31.744 32.256-31.744h448c17.408 0 31.744 14.336 31.744 31.744v448.512c0 17.408-14.336 31.744-31.744 31.744zM384 208.128c0-8.704-7.168-15.872-15.872-15.872h-79.872v-80.384c0-8.704-7.168-15.872-16.384-15.872h-31.744c-8.704 0-15.872 7.168-15.872 15.872v80.384h-80.384c-8.704 0-15.872 7.168-15.872 15.872v31.744c0 9.216 7.168 16.384 15.872 16.384h80.384v79.872c0 8.704 7.168 15.872 15.872 15.872h31.744c9.216 0 16.384-7.168 16.384-15.872v-79.872h79.872c8.704 0 15.872-7.168 15.872-16.384v-31.744z" />
<glyph unicode="&#xe883;" d="M480.256 480h-448c-17.92 0-32.256-14.336-32.256-31.744v-448.512c0-17.408 14.336-31.744 32.256-31.744h448c17.408 0 31.744 14.336 31.744 31.744v448.512c0 17.408-14.336 31.744-31.744 31.744zM384 208.128c0-8.704-7.168-15.872-15.872-15.872h-224.256c-8.704 0-15.872 7.168-15.872 15.872v31.744c0 9.216 7.168 16.384 15.872 16.384h224.256c8.704 0 15.872-7.168 15.872-16.384v-31.744z" />
<glyph unicode="&#xe884;" d="M480.256 480h-448c-17.92 0-32.256-14.336-32.256-31.744v-448.512c0-17.408 14.336-31.744 32.256-31.744h448c17.408 0 31.744 14.336 31.744 31.744v448.512c0 17.408-14.336 31.744-31.744 31.744zM379.392 270.080l-143.872-143.872c-6.656-6.144-16.384-6.144-23.040 0l-79.872 79.872c-6.144 6.144-6.144 16.384 0 22.528l22.528 22.528c6.656 6.656 16.384 6.656 23.040 0l46.080-46.080 109.568 110.080c6.656 6.656 16.384 6.656 23.040 0l22.528-22.528c6.144-6.144 6.144-16.384 0-22.528z" />
<glyph unicode="&#xe885;" d="M480.256 480h-448c-17.92 0-32.256-14.336-32.256-31.744v-448.512c0-17.408 14.336-31.744 32.256-31.744h448c17.408 0 31.744 14.336 31.744 31.744v448.512c0 17.408-14.336 31.744-31.744 31.744zM357.888 167.68c6.144-6.656 6.144-16.384 0-23.040l-22.528-22.528c-6.144-6.144-16.384-6.144-22.528 0l-56.832 56.832-56.32-56.832c-6.656-6.144-16.384-6.144-23.040 0l-22.528 22.528c-6.144 6.656-6.144 16.384 0 23.040l56.832 56.32-56.832 56.832c-6.144 6.144-6.144 16.384 0 22.528l22.528 22.528c6.656 6.144 16.384 6.144 23.040 0l56.32-56.832 56.832 56.832c6.144 6.144 16.384 6.144 22.528 0l22.528-22.528c6.144-6.144 6.144-16.384 0-22.528l-56.832-56.832 56.832-56.32z" />
<glyph unicode="&#xe886;" d="M480.256 480h-448c-17.92 0-32.256-14.336-32.256-31.744v-448.512c0-17.408 14.336-31.744 32.256-31.744h448c17.408 0 31.744 14.336 31.744 31.744v448.512c0 17.408-14.336 31.744-31.744 31.744zM341.504 160h-171.008c-9.728 0-13.312 6.656-8.192 14.336l84.992 139.776c4.608 7.68 12.8 7.68 17.408 0l84.992-139.776c5.12-7.68 1.536-14.336-8.192-14.336z" />
<glyph unicode="&#xe887;" d="M512 448.256c0 17.408-14.336 31.744-31.744 31.744h-448c-17.92 0-32.256-14.336-32.256-31.744v-448.512c0-17.408 14.336-31.744 32.256-31.744h448c17.408 0 31.744 14.336 31.744 31.744v448.512zM353.28 273.664l-85.504-139.776c-4.608-7.68-12.288-7.68-17.408 0l-84.992 139.776c-5.12 7.68-1.024 14.336 8.192 14.336h171.008c9.728 0 13.312-6.656 8.704-14.336z" />
<glyph unicode="&#xe888;" d="M512 448.256c0 17.408-14.336 31.744-31.744 31.744h-448c-17.92 0-32.256-14.336-32.256-31.744v-448.512c0-17.408 14.336-31.744 32.256-31.744h448c17.408 0 31.744 14.336 31.744 31.744v448.512zM320 138.496c0-9.728-9.728-13.312-17.408-8.192l-141.312 84.992c-8.192 4.608-8.704 12.8-1.024 17.408l142.336 84.992c8.192 5.12 17.408 1.536 17.408-8.192v-171.008z" />
<glyph unicode="&#xe889;" d="M480.256 480h-448c-17.92 0-32.256-14.336-32.256-31.744v-448.512c0-17.408 14.336-31.744 32.256-31.744h448c17.408 0 31.744 14.336 31.744 31.744v448.512c0 17.408-14.336 31.744-31.744 31.744zM346.112 215.296l-139.776-84.992c-7.68-5.12-14.336-1.536-14.336 8.192v171.008c0 9.728 6.656 13.312 14.336 8.192l139.776-84.992c7.68-4.608 7.68-12.8 0-17.408z" />
<glyph unicode="&#xe88a;" d="M292.352 224q0 30.208-20.992 51.712t-51.712 21.504-51.712-21.504-21.504-51.712 21.504-51.712 51.712-21.504 51.712 21.504 20.992 51.712zM438.784 255.232v-63.488q0-3.584-2.048-6.656t-5.632-3.584l-53.248-8.192q-5.12-15.36-10.752-26.112 9.728-13.824 30.208-39.424 3.072-3.072 3.072-6.656t-2.56-6.656q-7.68-10.752-28.16-31.232t-27.136-19.968q-3.584 0-7.168 2.56l-39.424 30.72q-12.8-6.656-26.112-10.752-4.608-38.912-8.192-53.248-2.048-8.192-10.24-8.192h-63.488q-4.096 0-7.168 2.56t-3.072 6.144l-8.192 52.736q-13.824 4.608-25.6 10.752l-40.448-30.72q-3.072-2.56-7.168-2.56t-7.168 3.072q-35.84 32.768-47.104 48.128-2.048 2.56-2.048 6.656 0 3.072 2.56 6.144 4.096 6.144 14.336 18.944t15.36 20.48q-7.68 14.336-11.776 28.16l-52.224 7.68q-3.584 0.512-5.632 3.584t-2.56 6.656v63.488q0 3.584 2.56 6.656t5.12 3.584l53.248 8.192q4.096 12.8 11.264 26.112-11.776 16.384-30.72 39.424-3.072 3.584-3.072 7.168 0 2.56 2.56 6.144 7.68 10.24 28.16 30.72t27.136 20.48q3.584 0 7.68-2.56l39.424-30.72q12.288 6.656 25.6 10.752 4.608 38.912 8.704 53.248 1.536 7.68 10.24 7.68h63.488q3.584 0 6.656-2.048t3.584-6.144l7.68-52.736q14.336-4.608 25.6-10.752l40.96 30.72q2.56 2.56 6.656 2.56 3.584 0 7.168-2.56 36.864-34.304 47.104-48.64 2.048-2.56 2.048-6.656 0-3.072-2.048-6.144-4.608-6.144-14.848-19.456t-15.36-19.968q7.168-14.336 11.776-28.16l52.224-7.68q3.584-0.512 6.144-3.584t2.048-6.656z" horiz-adv-x="439" />
<glyph unicode="&#xe88b;" d="M256.512 88.832v-47.616h-71.168l-45.568 72.192-6.656 11.776q-2.048 2.56-3.072 6.144h-1.024l-2.56-6.144q-2.56-5.632-7.168-12.8l-44.032-71.168h-73.728v47.616h36.352l56.32 82.944-52.736 77.824h-38.912v48.128h78.848l39.424-65.024q0.512-1.024 6.656-12.288 2.048-2.56 3.072-5.632h1.024q0.512 2.56 3.072 5.632l7.168 12.288 39.936 65.024h73.216v-48.128h-35.328l-52.736-76.288 58.368-84.48h31.232zM438.272 282.88v-58.88h-146.944l-0.512 7.68q-1.536 8.192-1.536 13.312 0 17.92 7.68 33.28t18.432 24.576 24.064 18.944 24.064 15.36 18.432 15.36 7.68 18.432q0 10.752-8.704 17.92t-19.968 6.656q-14.848 0-27.648-10.752-4.096-3.584-10.24-11.264l-30.208 26.624q7.68 10.24 17.92 18.944 23.552 18.432 53.76 18.432 31.232 0 50.688-16.896t19.456-45.568q0-15.872-6.656-29.184t-17.92-22.016-23.040-16.896-23.552-14.336-18.944-14.848-8.704-17.92h66.56v23.040h35.84z" horiz-adv-x="439" />
<glyph unicode="&#xe88c;" d="M256.512 88.832v-47.616h-71.168l-45.568 72.192-6.656 11.776q-2.048 2.56-3.072 6.144h-1.024l-2.56-6.144q-2.56-5.632-7.168-12.8l-44.032-71.168h-73.728v47.616h36.352l56.32 82.944-52.736 77.824h-38.912v48.128h78.848l39.424-65.024q0.512-1.024 6.656-12.288 2.048-2.56 3.072-5.632h1.024q0.512 2.56 3.072 5.632l7.168 12.288 39.936 65.024h73.216v-48.128h-35.328l-52.736-76.288 58.368-84.48h31.232zM438.784 26.88v-58.88h-146.944l-1.024 7.68q-1.024 12.8-1.024 13.312 0 17.92 7.68 33.28t18.432 24.576 24.064 18.944 24.064 15.36 18.432 15.36 7.68 18.432q0 10.752-8.704 17.92t-19.968 6.656q-14.848 0-27.648-10.752-4.096-3.072-10.24-11.264l-30.208 26.624q7.68 10.24 17.92 18.944 23.040 18.432 53.76 18.432 31.744 0 50.688-16.896t19.456-45.568q0-18.944-9.728-33.792t-24.064-24.576-28.16-17.92-25.088-17.92-11.776-20.992h66.56v23.040h35.84z" horiz-adv-x="439" />
<glyph unicode="&#xe88d;" d="M13.824 416.512q-10.752 0.512-12.8 1.024l-1.024 25.088q3.584 0 11.264 0 17.408 0 32.256-1.024 37.888-2.048 47.104-2.048 24.576 0 48.128 1.024 33.28 1.024 41.984 1.536 15.872 0 24.576 0.512l-0.512-4.096 0.512-18.432v-2.56q-16.896-2.56-35.328-2.56-16.896 0-22.528-7.168-3.584-3.584-3.584-37.376 0-4.096 0-9.216t0-7.68l0.512-65.536 4.096-79.872q1.536-35.328 14.336-57.344 10.24-16.896 27.648-26.624 25.088-13.312 50.176-13.312 29.696 0 54.784 8.192 15.872 5.12 28.16 14.336 13.824 10.24 18.944 18.432 10.24 15.872 14.848 32.256 6.144 20.992 6.144 65.536 0 22.528-1.024 36.864t-3.072 34.816-4.096 45.568l-1.024 16.896q-1.536 18.944-6.656 25.088-9.728 10.24-22.016 9.728l-28.672-0.512-4.096 1.024 0.512 24.576h24.064l58.368-3.072q22.016-1.024 56.32 3.072l5.12-1.024q1.536-10.752 1.536-14.336 0-2.048-1.024-8.704-12.8-3.584-24.064-4.096-20.992-3.072-22.528-4.608-4.096-4.608-4.096-11.776 0-2.048 0-7.68t0.512-8.704q2.56-5.632 6.656-113.152 1.536-55.808-4.608-87.040-4.096-21.504-11.776-34.816-10.752-18.432-31.744-35.328-21.504-16.384-52.224-25.088-31.232-9.728-72.704-9.728-47.616 0-81.408 13.312-33.792 13.312-50.688 34.816-17.408 21.504-24.064 55.808-4.608 22.528-4.608 67.584v95.232q0 53.76-4.608 60.928-7.168 10.24-41.984 10.752zM438.784 13.568v18.432q0 4.096-2.56 6.656t-6.656 2.56h-420.352q-4.096 0-6.656-2.56t-2.56-6.656v-18.432q0-4.096 2.56-6.656t6.656-2.56h420.352q4.096 0 6.656 2.56t2.56 6.656z" horiz-adv-x="439" />
<glyph unicode="&#xe88e;" d="M502.784 224q4.096 0 6.656-2.56t2.56-6.656v-18.432q0-3.584-2.56-6.144t-6.656-2.56h-493.568q-4.096 0-6.656 2.56t-2.56 6.144v18.432q0 4.096 2.56 6.656t6.656 2.56h493.568zM138.24 242.432q-8.192 9.728-14.848 22.528-13.824 27.648-13.824 53.76 0 51.712 38.4 88.576 37.888 36.352 112.128 36.352 14.336 0 48.128-5.632 18.432-3.584 50.176-13.824 3.072-10.752 6.144-33.792 4.096-34.816 4.096-52.224 0-5.12-1.536-12.8l-3.584-1.024-23.552 2.048-4.096 0.512q-14.336 42.496-29.696 58.368-25.088 26.112-59.904 26.112-32.768 0-52.224-16.896-18.944-16.384-18.944-41.472 0-20.992 18.944-40.448t79.872-36.864q19.456-5.632 49.152-18.432 16.896-8.192 27.136-14.848h-211.968zM282.624 169.216h117.76q2.048-11.264 2.048-26.112 0-31.744-11.776-60.928-6.656-15.36-20.48-29.696-10.24-9.728-31.232-23.040-22.528-13.824-43.52-18.944-23.040-6.144-57.856-6.144-32.768 0-55.808 6.656l-39.936 11.776q-16.384 4.096-20.48 7.68-2.56 2.56-2.56 6.144v4.096q0 30.72-0.512 44.544 0 8.704 0 19.456l0.512 10.24v12.8l29.184 0.512q4.096-9.728 8.704-20.48t6.144-15.872 3.584-7.68q10.24-16.384 23.040-26.624 12.288-10.24 30.208-16.384 16.896-6.144 37.376-6.144 18.432 0 39.936 7.68 22.016 7.168 34.816 24.576 13.312 17.408 13.312 36.864 0 24.064-23.040 44.544-9.728 8.192-39.424 20.48z" />
<glyph unicode="&#xe88f;" d="M109.056 17.152q0-23.040-15.872-35.84t-38.4-13.312q-30.72 0-49.152 18.944l15.872 25.088q14.336-12.8 30.72-12.8 8.192 0 14.336 4.096t6.144 12.288q0 17.92-30.208 15.872l-7.168 15.872q2.048 3.072 9.216 12.288t12.288 15.872 10.24 10.752v0.512q-4.608 0-13.824-0.512t-13.824 0v-15.36h-30.208v43.52h95.232v-25.088l-27.136-33.28q14.336-3.072 23.040-13.824t8.704-25.088zM109.568 196.352v-45.568h-103.424q-2.048 10.24-2.048 15.36 0 14.848 7.168 26.624t15.872 19.456 18.944 13.824 15.872 12.288 7.168 12.8q0 7.168-4.608 11.264t-11.264 3.584q-12.8 0-23.040-16.384l-24.064 16.896q6.656 14.336 20.48 22.528t30.208 8.192q20.48 0 34.816-11.776t14.336-32.256q0-14.336-9.728-26.112t-21.504-18.432-21.504-14.336-10.24-15.36h36.352v17.408h30.208zM512 105.216v-54.784q0-4.096-2.56-6.656t-6.656-2.56h-347.136q-4.096 0-6.656 2.56t-2.56 6.656v54.784q0 4.096 2.56 6.656t6.656 2.56h347.136q3.584 0 6.656-3.072t2.56-6.144zM109.568 362.24v-28.672h-95.744v28.672h30.72q0 11.264 0 34.816t0.512 34.304v3.584h-0.512q-2.56-5.12-14.336-15.36l-20.48 21.504 38.912 36.352h30.208v-115.2h30.72zM512 251.648v-55.296q0-3.584-2.56-6.144t-6.656-2.56h-347.136q-4.096 0-6.656 2.56t-2.56 6.144v55.296q0 3.584 2.56 6.144t6.656 2.56h347.136q3.584 0 6.656-2.56t2.56-6.144zM512 397.568v-54.784q0-3.584-2.56-6.144t-6.656-3.072h-347.136q-4.096 0-6.656 3.072t-2.56 6.144v54.784q0 4.096 2.56 6.656t6.656 2.56h347.136q3.584 0 6.656-2.56t2.56-6.656z" />
<glyph unicode="&#xe890;" d="M109.568 77.568q0-22.528-15.872-38.912t-38.912-15.872-38.912 15.872-15.872 38.912 15.872 38.912 38.912 15.872 38.912-15.872 15.872-38.912zM109.568 224q0-23.040-15.872-38.912t-38.912-15.872-38.912 15.872-15.872 38.912 15.872 38.912 38.912 15.872 38.912-15.872 15.872-38.912zM512 105.216v-54.784q0-3.584-2.56-6.656t-6.656-2.56h-347.136q-4.096 0-6.656 2.56t-2.56 6.656v54.784q0 3.584 2.56 6.144t6.656 3.072h347.136q3.584 0 6.656-3.072t2.56-6.144zM109.568 370.432q0-23.040-15.872-38.912t-38.912-15.872-38.912 15.872-15.872 38.912 15.872 38.912 38.912 15.872 38.912-15.872 15.872-38.912zM512 251.648v-55.296q0-3.584-2.56-6.144t-6.656-2.56h-347.136q-4.096 0-6.656 2.56t-2.56 6.144v55.296q0 3.584 2.56 6.144t6.656 2.56h347.136q3.584 0 6.656-2.56t2.56-6.144zM512 397.568v-54.784q0-3.584-2.56-6.144t-6.656-3.072h-347.136q-4.096 0-6.656 3.072t-2.56 6.144v54.784q0 4.096 2.56 6.656t6.656 2.56h347.136q3.584 0 6.656-2.56t2.56-6.656z" />
<glyph unicode="&#xe891;" d="M158.72 45.312q21.504-9.216 39.936-9.216 37.376 0 61.44 11.776t34.816 32.256q11.264 19.968 11.264 51.712 0 32.768-11.776 51.712-16.896 26.624-40.448 35.84-23.040 9.216-70.656 9.216-20.992 0-28.672-3.072v-40.96l-0.512-49.664 1.024-76.8q0-4.608 3.584-12.8zM154.624 258.816q12.288-2.048 31.232-2.048 49.664 0 75.264 18.432t25.6 64q0 31.744-24.576 53.248-24.064 21.504-72.704 21.504-14.848 0-37.376-3.584 0-12.8 1.024-22.016 1.536-34.816 1.536-79.872l-0.512-28.16q0-12.288 0.512-22.016zM0 4.352l0.512 27.136q12.8 2.56 19.456 3.584 22.016 3.072 35.328 8.704 4.608 7.68 5.632 14.336 2.56 18.944 2.56 55.808l-0.512 141.824q-1.024 73.216-2.56 115.2 0 25.088-3.072 31.232 0 1.024-3.072 3.584-5.632 3.584-19.968 4.096-8.704 0.512-32.768 4.096l-1.024 23.552 74.24 1.536 121.344 4.096q1.536 0 4.096 0t4.096 0q0.512 0 6.144 0t11.776 0h20.992q25.088 0 54.272-7.68 12.288-3.584 27.648-11.264 16.384-8.192 29.184-21.504 12.8-13.312 18.432-29.696t6.144-34.816q0-20.48-9.216-36.864t-27.136-29.696q-7.168-6.144-43.008-22.016 50.688-11.776 76.288-41.984 26.624-30.208 26.624-67.584 0-21.504-8.192-45.568-6.144-17.92-20.48-33.792-18.944-20.48-39.936-30.72-20.992-10.24-57.856-16.896-23.552-4.608-56.832-3.584l-56.32 1.536q-24.064 0.512-84.992-3.072-9.728-1.024-77.824-3.584z" horiz-adv-x="402" />
<glyph unicode="&#xe892;" d="M0 4.864l5.12 24.576q1.024 0 22.016 5.632 21.504 5.632 32.768 11.264 8.192 10.752 11.776 28.672l7.68 39.936 15.872 76.288 3.584 18.432q2.56 12.8 5.12 24.064t4.608 19.456 3.584 13.312 2.56 8.704 0.512 3.072l8.704 45.056 4.608 17.92 6.144 38.4 2.048 14.336v10.752q-11.776 6.656-40.96 8.192-8.192 0.512-10.752 1.024l5.12 29.696 90.624-4.096q11.264-0.512 20.992-0.512 18.944 0 60.928 2.56 9.728 0.512 19.456 1.024t10.24 1.024q-0.512-5.632-1.536-11.264-2.048-8.192-3.584-14.336-15.872-5.632-31.232-8.704-18.432-4.608-28.672-9.216-3.584-8.704-7.168-25.088-2.56-12.288-3.584-23.552-12.8-56.832-18.944-87.040l-17.408-89.088-10.752-45.056-12.288-67.072-3.584-12.8q-0.512-2.048 0.512-7.68 18.432-4.608 33.792-6.144 10.24-1.536 18.944-3.072-0.512-8.192-2.048-16.384-2.048-8.704-2.56-11.776-5.12 0-6.656-0.512-6.656-0.512-11.776-0.512-2.56 0-8.192 1.024-5.12 1.024-41.472 5.12l-56.32 0.512q-11.776 0-49.664-3.072-21.504-2.048-28.16-3.072z" horiz-adv-x="293" />
</font>
</defs>
</svg>
